<svg width="202" height="202" viewBox="0 0 202 202" fill="none" xmlns="http://www.w3.org/2000/svg">
<g id="Group 22">
<circle id="Oval Copy 2" opacity="0.202683" cx="101" cy="101" r="101" transform="matrix(0 1 1 0 0 0)" fill="url(#paint0_linear_0_10321)"/>
<g id="designer_(2) 2">
<g id="designer_(2)">
<path id="Path" d="M192.03 166.454H9.96957C9.77414 166.454 9.61572 166.295 9.61572 166.098C9.61572 165.902 9.77414 165.743 9.96957 165.743H192.03C192.226 165.743 192.384 165.902 192.384 166.098C192.384 166.295 192.226 166.454 192.03 166.454Z" fill="#D1D3D4"/>
<rect id="Rectangle" x="136.144" y="104.141" width="40.6428" height="70.0579" fill="white"/>
<path id="Shape" fill-rule="evenodd" clip-rule="evenodd" d="M136.144 174.554H176.787C176.883 174.554 176.975 174.514 177.042 174.445C177.109 174.375 177.144 174.281 177.14 174.184V104.141C177.14 103.944 176.982 103.785 176.787 103.785H136.144C135.948 103.785 135.79 103.944 135.79 104.141V174.198C135.79 174.395 135.948 174.554 136.144 174.554ZM176.433 173.843H136.498V104.496H176.433V173.843Z" fill="#231F20"/>
<rect id="Rectangle_2" x="24.1729" y="104.141" width="40.6428" height="70.0579" fill="white"/>
<path id="Shape_2" fill-rule="evenodd" clip-rule="evenodd" d="M24.1727 174.554H64.8155C64.9118 174.554 65.004 174.514 65.0708 174.445C65.1376 174.375 65.1732 174.281 65.1693 174.184V104.141C65.1693 103.944 65.0109 103.785 64.8155 103.785H24.1727C23.9773 103.785 23.8188 103.944 23.8188 104.141V174.198C23.8188 174.395 23.9773 174.554 24.1727 174.554ZM64.4616 173.843H24.5265V104.496H64.4616V173.843Z" fill="#231F20"/>
<path id="Path_2" d="M143.709 83.8266L151.756 100.048H129.994L143.709 83.8266Z" fill="#231F20"/>
<path id="Shape_3" fill-rule="evenodd" clip-rule="evenodd" d="M130.015 100.403H151.755C151.89 100.416 152.02 100.35 152.088 100.233C152.149 100.127 152.149 99.9971 152.088 99.8916L144.049 83.6703C143.995 83.5638 143.891 83.4917 143.773 83.4784C143.655 83.4597 143.536 83.5058 143.461 83.5992L129.746 99.8205C129.655 99.9236 129.632 100.071 129.69 100.197C129.75 100.323 129.876 100.403 130.015 100.403ZM151.182 99.6926H130.758L143.631 84.4732L151.182 99.6926Z" fill="#231F20"/>
<path id="Path_3" d="M81.9062 100.048H133.716L152.513 72.3942H103.604L81.9062 100.048Z" fill="#231F20"/>
<path id="Shape_4" fill-rule="evenodd" clip-rule="evenodd" d="M81.8923 100.403H133.717C133.836 100.406 133.948 100.347 134.014 100.247L152.81 72.6003C152.881 72.4873 152.881 72.3438 152.81 72.2308C152.747 72.116 152.629 72.043 152.499 72.0389H103.59C103.482 72.0384 103.38 72.0883 103.314 72.1739L81.6163 99.8276C81.5323 99.9342 81.5164 100.08 81.5751 100.202C81.6338 100.324 81.7569 100.403 81.8923 100.403ZM133.554 99.6926H82.6353L103.774 72.7495H151.869L133.554 99.6926Z" fill="#231F20"/>
<path id="Path_4" d="M105.161 75.08L89.6768 95.2234H128.126L142.676 75.08H105.161Z" fill="white"/>
<path id="Shape_5" fill-rule="evenodd" clip-rule="evenodd" d="M89.6768 95.5787H128.126C128.234 95.5737 128.333 95.5185 128.395 95.4295L142.945 75.2861C143.015 75.1731 143.015 75.0296 142.945 74.9166C142.887 74.7973 142.766 74.7224 142.633 74.7247H105.126C105.018 74.7242 104.916 74.7741 104.85 74.8597L89.3584 95.0032C89.2914 95.1197 89.2914 95.2632 89.3584 95.3797C89.4179 95.5017 89.5415 95.579 89.6768 95.5787ZM127.906 94.8682H90.3987L105.338 75.4211H141.982L127.906 94.8682Z" fill="#231F20"/>
<path id="Path_5" d="M116.173 91.5571C116.022 91.556 115.889 91.459 115.84 91.3155C113.979 85.8089 111.389 79.7695 110.448 79.6274C109.323 79.6274 102.104 85.6171 95.6924 91.4718C95.5989 91.5582 95.4666 91.5878 95.3454 91.5496C95.2241 91.5114 95.1324 91.4112 95.1047 91.2867C95.0771 91.1622 95.1176 91.0324 95.2112 90.9461C97.4333 88.9211 108.48 78.924 110.512 78.924H110.589C112.401 79.2011 115.607 88.3029 116.548 91.0882C116.579 91.1776 116.573 91.2759 116.53 91.3604C116.487 91.4449 116.412 91.5082 116.322 91.5358C116.275 91.5559 116.224 91.5632 116.173 91.5571Z" fill="#D1D3D4"/>
<path id="Path_6" d="M127.722 92.2961C127.563 92.2952 127.424 92.1876 127.383 92.0332C126.137 87.5924 124.361 82.8532 123.526 82.6045C122.691 82.3558 118.813 85.8729 115.656 89.255C115.521 89.3982 115.296 89.4046 115.154 89.2692C115.011 89.1338 115.005 88.908 115.14 88.7647C116.753 87.0382 122.132 81.4463 123.731 81.9295C125.33 82.4126 127.623 90.2711 128.062 91.8768C128.117 92.0652 128.009 92.2624 127.821 92.3174L127.722 92.2961Z" fill="#D1D3D4"/>
<path id="Shape_6" fill-rule="evenodd" clip-rule="evenodd" d="M137.538 85.1268C137.538 85.6597 138.225 86.0789 139.095 86.0789C139.965 86.0789 140.652 85.6597 140.652 85.1268C140.652 84.5939 139.944 84.1818 139.095 84.1818C138.246 84.1818 137.538 84.5939 137.538 85.1268ZM137.68 85.1268C137.68 84.7076 138.345 84.3595 139.095 84.3595V84.3808C139.845 84.3808 140.475 84.7076 140.475 85.1268C140.475 85.546 139.881 85.9013 139.095 85.9013C138.309 85.9013 137.68 85.546 137.68 85.1268Z" fill="#A7A9AC"/>
<path id="Path_7" d="M145.28 78.0216H142.138C142.093 78.0182 142.057 77.9819 142.053 77.9363C142.053 77.888 142.09 77.8477 142.138 77.8439H145.28C145.304 77.8439 145.327 77.8538 145.343 77.8714C145.359 77.8889 145.367 77.9125 145.365 77.9363C145.365 77.9834 145.327 78.0216 145.28 78.0216Z" fill="#A7A9AC"/>
<path id="Path_8" d="M133.717 100.403C133.641 100.404 133.567 100.382 133.504 100.339C133.349 100.222 133.315 100.002 133.426 99.8418L143.461 86.015C143.517 85.9385 143.6 85.8873 143.693 85.8726C143.786 85.8579 143.881 85.8811 143.957 85.9368C144.112 86.0545 144.146 86.2744 144.035 86.4342L134 100.289C133.927 100.367 133.823 100.409 133.717 100.403Z" fill="white"/>
<path id="Shape_7" fill-rule="evenodd" clip-rule="evenodd" d="M114.616 78.6468C114.616 79.5101 115.313 80.21 116.173 80.21C117.033 80.21 117.73 79.5101 117.73 78.6468C117.73 77.7835 117.033 77.0837 116.173 77.0837C115.313 77.0837 114.616 77.7835 114.616 78.6468ZM115.324 78.6468C115.324 78.1759 115.704 77.7942 116.173 77.7942C116.399 77.7923 116.616 77.8815 116.776 78.0418C116.935 78.2021 117.024 78.4201 117.022 78.6468C117.022 79.1177 116.642 79.4995 116.173 79.4995C115.704 79.4995 115.324 79.1177 115.324 78.6468Z" fill="#D1D3D4"/>
<rect id="Rectangle_3" x="18.7734" y="100.652" width="159.74" height="6.79974" fill="white"/>
<path id="Shape_8" fill-rule="evenodd" clip-rule="evenodd" d="M18.7733 107.807H178.521C178.716 107.807 178.875 107.648 178.875 107.452V100.652C178.871 100.457 178.715 100.3 178.521 100.297H18.7733C18.5794 100.3 18.4232 100.457 18.4194 100.652V107.452C18.4194 107.648 18.5779 107.807 18.7733 107.807ZM178.139 107.096H19.1271V101H178.139V107.096Z" fill="#231F20"/>
<path id="Path_9" d="M78.8564 137.436C79.005 137.94 70.0669 170.156 70.0669 170.156L82.5577 172.173L97.3201 127.666L78.8564 137.436Z" fill="white"/>
<path id="Shape_9" fill-rule="evenodd" clip-rule="evenodd" d="M82.5008 172.529H82.5574C82.707 172.531 82.8412 172.436 82.89 172.294L97.6595 127.787C97.6999 127.649 97.6587 127.5 97.5534 127.403C97.4411 127.312 97.2861 127.295 97.1571 127.361L78.6934 137.13C78.5675 137.195 78.4923 137.329 78.5023 137.471C78.4032 138.537 73.2088 157.515 69.7199 170.063C69.6978 170.162 69.7129 170.266 69.7623 170.354C69.8192 170.439 69.9092 170.496 70.01 170.511L82.5008 172.529ZM82.3309 171.776L70.5266 169.864H70.5125C75.8768 150.524 78.7854 139.717 79.1746 137.677L96.7254 128.398L82.3309 171.776Z" fill="#231F20"/>
<path id="Path_10" d="M69.3095 168.763L67.4058 174.774L97.3199 177.097C95.9151 174.257 93.4861 172.059 90.5261 170.951C87.4193 169.857 84.0719 168.55 84.0719 168.55L82.5575 172.173L69.3095 168.763Z" fill="#231F20"/>
<path id="Shape_10" fill-rule="evenodd" clip-rule="evenodd" d="M67.4056 175.129L97.3198 177.453C97.4617 177.487 97.6098 177.427 97.6878 177.303C97.7483 177.195 97.7483 177.063 97.6878 176.955C96.2477 174.022 93.743 171.754 90.6887 170.617C88.4573 169.833 86.084 168.924 84.9392 168.486C84.5082 168.321 84.2513 168.223 84.2416 168.223C84.1563 168.188 84.0605 168.188 83.9755 168.224C83.8905 168.26 83.8233 168.329 83.7887 168.415L82.3733 171.754L69.4226 168.422C69.2416 168.375 69.0556 168.478 68.998 168.656L67.0943 174.667C67.0615 174.771 67.0778 174.884 67.1385 174.974C67.1992 175.064 67.2976 175.121 67.4056 175.129ZM96.7112 176.699L67.8727 174.454L69.5429 169.211L82.4653 172.522C82.6378 172.563 82.8148 172.473 82.8829 172.308L84.2629 169.012C84.3007 169.026 84.3415 169.042 84.3853 169.058C85.3998 169.445 87.9908 170.434 90.4127 171.285C93.0802 172.292 95.3099 174.208 96.7112 176.699Z" fill="#231F20"/>
<path id="Path_11" d="M48.3122 137.862L46.1891 171.797C46.1891 171.797 39.0131 172.046 37.2156 173.31C35.418 174.575 33.9531 180.302 33.9531 180.302H36.1894C36.1894 180.302 37.4916 176.039 38.9211 175.527C40.3507 175.016 48.475 174.817 48.475 174.817C48.475 174.817 52.3956 176.337 53.0254 178.945C53.5208 180.998 53.3793 181.474 53.3793 181.474H55.8562C55.8502 180.306 55.6835 179.144 55.3608 178.021C54.8654 176.6 53.0042 174.902 53.0042 174.902C53.0042 174.902 57.1017 174.987 58.4676 174.987C59.8334 174.987 61.2559 177.602 61.2559 177.602H63.9239C63.9239 177.602 61.1356 172.884 59.331 172.55C57.5264 172.216 52.898 171.406 52.898 171.406L51.6384 139.788L48.3122 137.862Z" fill="#231F20"/>
<path id="Shape_11" fill-rule="evenodd" clip-rule="evenodd" d="M53.4079 181.837H55.8848C56.0747 181.833 56.2278 181.679 56.2316 181.488C56.2284 180.286 56.0544 179.089 55.7149 177.936C55.2877 176.951 54.6722 176.06 53.9032 175.314C54.1025 175.317 54.3268 175.321 54.5672 175.325C55.881 175.347 57.6755 175.378 58.4891 175.378C59.3242 175.378 60.4565 176.87 60.966 177.808C61.0294 177.921 61.1481 177.991 61.2774 177.993H63.9454C64.0747 177.991 64.1934 177.921 64.2568 177.808C64.32 177.698 64.32 177.563 64.2568 177.453C63.9666 176.955 61.3269 172.593 59.4303 172.237C57.9017 171.946 54.3066 171.321 53.2734 171.143L52.0208 139.809C52.0165 139.687 51.9494 139.577 51.8439 139.518L48.4894 137.578C48.3832 137.521 48.2559 137.521 48.1497 137.578C48.0442 137.639 47.9754 137.748 47.9657 137.869L45.8851 171.491C44.4414 171.555 38.702 171.889 37.0389 173.054C35.1565 174.376 33.6986 180.011 33.642 180.245C33.6164 180.351 33.6398 180.463 33.7057 180.55C33.7716 180.637 33.873 180.689 33.9817 180.693H36.2392C36.3957 180.69 36.5329 180.587 36.5789 180.437C37.0602 178.867 38.1712 176.238 39.0912 175.897C40.2023 175.449 46.1611 175.236 48.4611 175.186C48.9282 175.385 52.1765 176.813 52.7072 179.037C52.9496 179.792 53.0714 180.581 53.0682 181.375C53.0348 181.483 53.0531 181.601 53.1177 181.694C53.1888 181.783 53.295 181.835 53.4079 181.837ZM55.5097 181.126H53.7759C53.7134 180.357 53.5759 179.595 53.3654 178.852C52.7002 176.096 48.7654 174.547 48.5956 174.483H48.4611C48.1285 174.483 40.1316 174.703 38.7869 175.193C37.4423 175.683 36.2817 178.945 35.9562 179.947H34.4417C34.9442 178.142 36.1756 174.497 37.4494 173.602C38.8506 172.642 44.2645 172.252 46.2319 172.181C46.4138 172.174 46.5608 172.029 46.5716 171.847L48.6309 138.452L51.3202 140.008L52.5586 171.427C52.5632 171.598 52.688 171.741 52.8559 171.768C52.9125 171.776 57.5054 172.571 59.2817 172.905C60.4706 173.126 62.3531 175.754 63.3014 177.254H61.4756C61.0934 176.593 59.8337 174.639 58.482 174.639C57.3338 174.639 54.2299 174.577 53.2953 174.559C53.1296 174.556 53.0321 174.554 53.0257 174.554C52.8783 174.557 52.7461 174.646 52.686 174.781C52.6354 174.918 52.6717 175.072 52.778 175.172C52.7789 175.173 52.7826 175.176 52.7889 175.182C52.9404 175.323 54.6011 176.867 55.0426 178.142C55.3292 179.111 55.4863 180.115 55.5097 181.126Z" fill="#231F20"/>
<path id="Path_12" d="M89.231 116.219C89.231 116.219 117.496 117.733 119.28 121.776C121.063 125.819 107.957 170.276 107.957 170.276C107.957 170.276 121.792 175.079 119.527 176.088C117.263 177.097 94.6166 175.079 94.6166 175.079L105.352 133.869L77.3843 131.979L89.231 116.219Z" fill="white"/>
<path id="Shape_12" fill-rule="evenodd" clip-rule="evenodd" d="M94.6094 175.435C96.4281 175.598 109.329 176.728 115.968 176.728C117.224 176.806 118.485 176.7 119.711 176.415C119.988 176.327 120.175 176.068 120.171 175.776C120.115 174.319 112.188 171.371 108.431 170.056C109.719 165.686 121.374 125.606 119.626 121.634C119.329 120.959 118.43 118.919 103.647 117.129C96.4281 116.248 89.337 115.864 89.2663 115.864C89.148 115.849 89.0319 115.905 88.969 116.006L77.1152 131.794C77.0341 131.897 77.0177 132.037 77.0727 132.157C77.1312 132.271 77.2428 132.348 77.37 132.363L104.913 134.224L94.298 174.987C94.2704 175.089 94.2885 175.198 94.3475 175.286C94.409 175.371 94.5046 175.426 94.6094 175.435ZM119.407 175.762C117.659 176.543 101.651 175.342 95.0835 174.76L105.713 133.997C105.733 133.894 105.713 133.787 105.656 133.698C105.592 133.614 105.494 133.562 105.388 133.556L78.0706 131.702L89.3937 116.589C97.334 117.022 117.532 118.706 118.947 121.925C120.362 125.144 111.247 157.856 107.624 170.184C107.567 170.366 107.664 170.561 107.843 170.624C113.123 172.451 118.94 174.902 119.407 175.762Z" fill="#231F20"/>
<path id="Path_13" d="M79.6416 90.9532C79.6416 90.9532 94.1634 109.143 100.37 108.638C106.576 108.134 124.354 85.7095 124.354 85.7095C127.567 81.8584 131.162 76.97 128.862 71.6624C128.635 71.1508 128.239 70.6037 127.687 70.6463C127.455 70.6821 127.234 70.7722 127.043 70.9092L125.061 72.1313C125.125 71.5842 124.431 71.1934 123.901 71.3426C123.384 71.5455 122.954 71.9222 122.683 72.4084C120.624 75.35 119.294 78.1495 119.407 81.7732L98.629 92.4311L90.3844 83.2724" fill="white"/>
<path id="Path_14" d="M100.122 109.001C93.6754 109.001 79.9532 91.9479 79.3658 91.1734C79.2641 91.0198 79.2965 90.8135 79.4403 90.6987C79.5842 90.5838 79.7917 90.5987 79.9178 90.7329C80.0594 90.9105 94.0151 108.297 100.101 108.297H100.342C106.329 107.814 123.887 85.7237 124.057 85.4963C127.376 81.5316 130.723 76.8847 128.522 71.8187C128.437 71.6197 128.14 70.9874 127.701 71.0158C127.524 71.0481 127.357 71.1211 127.213 71.2289L125.217 72.4439C125.102 72.5154 124.957 72.5147 124.842 72.4422C124.728 72.3696 124.665 72.2379 124.679 72.1029C124.688 71.9984 124.64 71.8973 124.552 71.84C124.389 71.709 124.177 71.657 123.972 71.6979C123.536 71.8845 123.175 72.2121 122.946 72.6287C121.205 75.1155 119.612 77.9434 119.733 81.7803C119.737 81.9171 119.663 82.0442 119.542 82.1071L98.7637 92.765C98.6209 92.8387 98.4465 92.8066 98.3391 92.6868L90.1015 83.5139C90.0345 83.4472 89.9968 83.3564 89.9968 83.2617C89.9968 83.167 90.0345 83.0762 90.1015 83.0095C90.2415 82.8732 90.464 82.8732 90.604 83.0095L98.6575 91.9479L119.004 81.5387C118.94 77.6095 120.568 74.7176 122.344 72.1811C122.663 71.6263 123.163 71.1995 123.759 70.9732C124.195 70.8681 124.654 70.9761 124.998 71.2645C125.093 71.3479 125.174 71.4462 125.238 71.5558L126.824 70.5824C127.063 70.4141 127.34 70.3068 127.63 70.2697C128.246 70.22 128.791 70.6747 129.145 71.4989C131.707 77.3963 127.078 82.9384 124.587 85.9155C123.88 86.825 106.669 108.461 100.377 108.972L100.122 109.001Z" fill="#231F20"/>
<path id="Path_15" d="M32.1063 87.8482C32.1063 87.8482 24.626 104.865 27.4002 106.684C30.1743 108.503 47.0599 106.684 47.0599 106.684L45.595 84.6579" fill="white"/>
<path id="Path_16" d="M33.8186 107.807C30.7967 107.807 28.157 107.594 27.1946 106.954C26.7133 106.642 25.2413 105.682 28.3764 96.4668C29.8838 92.0261 31.7592 87.7487 31.7804 87.7061C31.8211 87.5761 31.9323 87.481 32.0665 87.4612C32.2007 87.4414 32.3344 87.5004 32.4107 87.6131C32.4869 87.7258 32.4922 87.8723 32.4244 87.9903C29.5937 94.4632 25.758 105.171 27.5838 106.357C29.7069 107.778 41.7377 106.841 46.6915 106.357L45.2761 84.6792C45.2624 84.483 45.4098 84.3128 45.6052 84.2991C45.8006 84.2853 45.9701 84.4333 45.9838 84.6295L47.4487 106.656C47.4611 106.847 47.3202 107.014 47.1303 107.032C46.6349 107.061 39.5013 107.807 33.8186 107.807Z" fill="#231F20"/>
<path id="Path_17" d="M38.1992 116.688C38.1992 116.688 34.5404 124.845 38.4398 129.989C42.3392 135.134 96.4706 135.752 96.4706 135.752L100.356 116.219L77.7097 113.122L76.3933 106.364L38.1992 116.688Z" fill="white"/>
<path id="Shape_13" fill-rule="evenodd" clip-rule="evenodd" d="M68.885 135.155C82.7841 135.944 96.3506 136.107 96.485 136.107C96.6554 136.106 96.8011 135.984 96.8318 135.816L100.675 116.262C100.695 116.168 100.675 116.07 100.618 115.992C100.563 115.91 100.475 115.855 100.377 115.843L78.0072 112.788L76.7404 106.272C76.7219 106.178 76.6656 106.096 76.5847 106.045C76.5016 105.988 76.3976 105.973 76.3016 106.002L38.0863 116.326C37.9819 116.352 37.8956 116.426 37.8527 116.525C37.697 116.866 34.1586 124.938 38.1358 130.181C39.8201 132.419 50.1666 134.089 68.885 135.155ZM38.7232 129.776C35.2838 125.243 37.9943 118.117 38.4543 116.987L76.1672 106.805L77.4056 113.2C77.4343 113.348 77.5536 113.462 77.7029 113.484L99.9527 116.525L96.1949 135.404C77.4481 135.176 41.7096 133.713 38.7232 129.776Z" fill="#231F20"/>
<path id="Path_18" d="M60.3784 47.9734C59.8261 47.6406 59.345 47.2011 58.9631 46.6803C58.433 45.9173 58.049 45.0619 57.8308 44.1579C55.9129 37.1947 55.8988 28.2776 62.0769 23.51C65.7745 20.6731 70.6126 19.8124 75.056 21.2008C78.0566 22.1813 80.6043 26.3237 81.9418 29.0166C83.0388 31.1979 83.7818 33.5711 85.084 35.6316C86.3861 37.6921 88.4597 39.4968 90.8941 39.6176C88.9407 40.715 86.595 40.8563 84.5249 40.0013C85.4978 41.3125 87.1441 41.9319 88.7357 41.5858C87.3203 42.7155 85.2963 42.6729 83.5129 42.2963C81.7295 41.9197 79.9744 41.3513 78.1415 41.5858C75.3108 41.9055 73.4708 43.9945 71.2557 45.5079C68.4461 47.3553 63.5914 49.8421 60.3784 47.9734Z" fill="white"/>
<path id="Shape_14" fill-rule="evenodd" clip-rule="evenodd" d="M60.2155 48.2861C61.079 48.7726 62.0564 49.0179 63.0463 48.9966C66.2592 48.9966 69.7977 46.8721 71.4466 45.7211C72.0198 45.3232 72.5718 44.8968 73.1097 44.4776C73.1796 44.4244 73.2493 44.3713 73.3189 44.3182C74.8205 43.173 76.2627 42.0731 78.1768 41.8558C79.5209 41.7814 80.8679 41.9352 82.1611 42.3105L82.1611 42.3105C82.5857 42.41 83.0103 42.5095 83.4349 42.5876C85.8269 43.0495 87.6811 42.7795 88.9478 41.7776C89.0807 41.6746 89.1232 41.492 89.0495 41.3405C88.9758 41.189 88.8062 41.1104 88.6435 41.1524C87.6932 41.3633 86.6985 41.1952 85.8694 40.6834C87.6369 41.0159 89.4647 40.7168 91.0355 39.8379C91.1763 39.7636 91.2468 39.6012 91.2054 39.4471C91.1702 39.2935 91.0367 39.1828 90.8798 39.1771C87.9854 39.035 86.0605 36.4629 85.3528 35.3616C84.5976 34.0845 83.9445 32.7492 83.3995 31.3684C83.0386 30.5087 82.6565 29.6205 82.2318 28.7679C80.9792 26.2455 78.3678 21.8545 75.1549 20.81C70.5986 19.3768 65.6326 20.2594 61.8432 23.1761C54.094 29.1729 56.5568 40.7829 57.4909 44.1934C57.7184 45.1504 58.1216 46.0564 58.6798 46.865C59.0881 47.4405 59.611 47.9244 60.2155 48.2861ZM62.2608 23.7658C64.711 21.8839 67.7106 20.865 70.7955 20.8668C72.2051 20.8601 73.6069 21.0759 74.9497 21.5063C78.0352 22.5082 80.6466 27.155 81.6232 29.1089C81.9821 29.7781 82.2768 30.4794 82.5663 31.1686C82.6365 31.3356 82.7063 31.5019 82.7768 31.6668C83.3348 33.0836 84.007 34.4524 84.7866 35.7595C85.8645 37.6479 87.61 39.0605 89.6768 39.7171C88.0546 40.2974 86.2766 40.2595 84.6805 39.6105C84.5356 39.5455 84.3652 39.5897 84.27 39.7171C84.1756 39.8434 84.1756 40.0171 84.27 40.1434C84.977 41.0948 86.0254 41.732 87.1928 41.9197C86.0149 42.1953 84.7897 42.1953 83.6118 41.9197C83.2987 41.8611 82.9856 41.7905 82.6725 41.7199C82.5681 41.6964 82.4636 41.6728 82.3592 41.6497C80.9812 41.2495 79.5448 41.0909 78.1131 41.1808C75.9121 41.4295 74.2703 42.7084 72.6851 43.9447C72.1614 44.3568 71.6165 44.7832 71.0645 45.1597C69.4651 46.2468 63.9805 49.6574 60.5694 47.6679C60.0514 47.3623 59.601 46.9537 59.246 46.4671C58.7374 45.7319 58.3702 44.9078 58.1632 44.0371C57.2503 40.7261 54.8654 29.4997 62.2608 23.7658Z" fill="#231F20"/>
<path id="Path_19" d="M79.5571 42.9145C79.5571 42.9145 81.4891 48.9824 80.4771 49.8421C79.4651 50.7018 77.3633 49.3518 77.3633 49.3518" fill="white"/>
<path id="Path_20" d="M79.6206 50.4887C78.755 50.4143 77.9211 50.1263 77.1932 49.6503C77.0795 49.5851 77.0109 49.4623 77.0148 49.331C77.0187 49.1996 77.0946 49.0812 77.212 49.0231C77.3294 48.9649 77.4691 48.9766 77.5753 49.0534C78.0707 49.3661 79.6206 50.1405 80.2646 49.5721C80.7529 49.1529 80.123 45.8489 79.2172 43.0282C79.1615 42.8401 79.265 42.6416 79.4507 42.5805C79.6363 42.5198 79.8359 42.6216 79.8966 42.8079C80.3636 44.2858 81.8144 49.2026 80.7246 50.1121C80.4162 50.3714 80.0224 50.5057 79.6206 50.4887Z" fill="#231F20"/>
<path id="Path_21" d="M80.7319 35.9584C82.3808 38.3174 80.7319 41.8558 80.0242 44.2645C79.0476 47.6561 77.9931 51.0216 76.8608 54.3611C76.1531 56.4926 70.5765 54.9508 69.7839 54.0342L68.2694 62.7808L56.543 58.7095L60.315 48.1013C60.315 48.1013 64.087 49.1955 67.4839 45.4226C70.8808 41.6497 73.2445 32.0292 73.2445 32.0292C73.2445 32.0292 79.1254 33.6492 80.7319 35.9584Z" fill="white"/>
<path id="Shape_15" fill-rule="evenodd" clip-rule="evenodd" d="M68.1487 63.1361H68.2619C68.3148 63.1322 68.3659 63.1151 68.4105 63.0863C68.5015 63.0367 68.5643 62.9474 68.5804 62.8447L69.9958 54.6595C71.6949 55.5479 73.6188 55.909 75.5229 55.6968C76.2422 55.6338 76.8681 55.1774 77.1505 54.5103C78.2829 51.1779 79.3444 47.7745 80.321 44.3995C80.4413 43.9945 80.5829 43.5611 80.7315 43.1063L80.7455 43.0638C81.5142 40.7273 82.4423 37.9066 80.9792 35.7879C79.3441 33.4477 73.7277 31.8492 73.3037 31.7286C73.2964 31.7265 73.2907 31.7249 73.2865 31.7237C73.2004 31.6882 73.1038 31.6882 73.0176 31.7237C72.9351 31.771 72.876 31.8509 72.8549 31.9439C72.8549 32.0434 70.3921 41.6284 67.1933 45.1811C64.0503 48.6718 60.6476 47.8271 60.389 47.7629C60.3844 47.7618 60.3808 47.7609 60.3782 47.7603C60.2009 47.7084 60.0141 47.8053 59.9536 47.9805L56.2099 58.6242C56.1781 58.7138 56.1781 58.8117 56.2099 58.9013C56.2508 58.9865 56.3252 59.0509 56.4152 59.0789L68.1487 63.1361ZM67.9859 62.3118L56.9884 58.4892L60.5056 48.4992C61.5318 48.6982 64.7447 48.9468 67.7099 45.6571C70.7955 42.2324 72.9893 34.2887 73.4635 32.4768C74.7515 32.8605 79.1392 34.3384 80.413 36.1574C81.6709 37.9535 80.8034 40.6087 80.1001 42.7615L80.0733 42.8434C80.0251 42.9956 79.9768 43.1448 79.9296 43.2911C79.8312 43.5953 79.737 43.8867 79.6558 44.165C78.6862 47.5329 77.6176 50.9221 76.4924 54.2403C76.365 54.6239 75.997 54.8797 75.3884 55.0005C73.5909 55.3558 70.5265 54.3895 70.017 53.7997C69.9277 53.6963 69.7871 53.6536 69.6556 53.69C69.5241 53.7264 69.4252 53.8355 69.4013 53.9703L67.9859 62.3118Z" fill="#231F20"/>
<path id="Path_22" d="M77.4905 51.8032C77.4905 51.8032 74.4121 52.6842 73.7822 49.565L77.4905 51.8032Z" fill="white"/>
<path id="Path_23" d="M76.549 52.2721C75.9418 52.2877 75.342 52.1353 74.8152 51.8316C74.0519 51.3371 73.5365 50.5377 73.3998 49.6361C73.365 49.4418 73.4915 49.2553 73.6842 49.2166C73.877 49.1779 74.0652 49.3012 74.1075 49.4939C74.2025 50.1942 74.5881 50.8214 75.169 51.2205C75.8497 51.5646 76.6313 51.6504 77.3699 51.4621C77.4964 51.4278 77.6314 51.4639 77.7242 51.5567C77.8169 51.6495 77.8533 51.7849 77.8197 51.9119C77.786 52.039 77.6874 52.1384 77.561 52.1726C77.229 52.2471 76.8891 52.2805 76.549 52.2721Z" fill="#231F20"/>
<path id="Path_24" d="M72.4588 43.2626C72.6025 42.3855 72.5021 41.4856 72.1686 40.6621C71.9961 39.9972 71.7292 39.3607 71.376 38.7721C71.0042 38.1846 70.393 37.7919 69.7059 37.6992C69.0885 37.6881 68.4968 37.9475 68.0853 38.4097C67.6721 38.8549 67.3669 39.3898 67.1936 39.9729C66.3606 42.5327 66.9454 45.3441 68.7293 47.3553L68.5948 47.0995" fill="white"/>
<path id="Path_25" d="M68.729 47.7105C68.6301 47.7095 68.5357 47.6685 68.4672 47.5968C66.5949 45.479 65.9808 42.5235 66.8536 39.8308C67.0433 39.1962 67.3777 38.6148 67.8302 38.1326C68.3234 37.6087 69.0163 37.3216 69.7339 37.3439C70.5316 37.4347 71.2436 37.8878 71.6659 38.5732C72.0418 39.189 72.3256 39.8569 72.5081 40.5555C72.8628 41.4407 72.9657 42.4074 72.8053 43.3479C72.7535 43.5394 72.5579 43.6534 72.3666 43.6037C72.1796 43.5518 72.0692 43.3585 72.1189 43.1703C72.2374 42.3581 72.1372 41.5288 71.8287 40.7687C71.67 40.1373 71.4171 39.5336 71.0786 38.9782C70.7712 38.4702 70.2503 38.1302 69.6632 38.0545C69.1536 38.0446 68.6643 38.2541 68.3186 38.63C67.9421 39.0346 67.6636 39.5209 67.5047 40.0511C66.7609 42.3362 67.1929 44.8429 68.6582 46.7442C68.7577 46.7716 68.842 46.8382 68.8918 46.9289L69.0192 47.1847C69.1039 47.3429 69.0549 47.5399 68.9059 47.6395C68.8551 47.68 68.7936 47.7047 68.729 47.7105Z" fill="#231F20"/>
<ellipse id="Oval" cx="79.2966" cy="39.9852" rx="1.25739" ry="0.5" transform="rotate(-77.39 79.2966 39.9852)" fill="#231F20"/>
<path id="Path_26" d="M69.7767 54.0342C68.2391 53.0325 66.7665 51.9337 65.3678 50.7445C65.3678 50.7445 64.6601 56.8976 68.8567 58.3116L69.7767 54.0342Z" fill="#231F20"/>
<path id="Shape_16" fill-rule="evenodd" clip-rule="evenodd" d="M68.7434 58.6668C68.7808 58.6736 68.8192 58.6736 68.8566 58.6668C68.9181 58.6669 68.9787 58.6523 69.0335 58.6242C69.1202 58.5732 69.1817 58.4882 69.2034 58.3897L70.1234 54.1266C70.1503 53.9832 70.089 53.8376 69.9677 53.7571C68.4438 52.7597 66.9831 51.6681 65.5942 50.4887C65.4924 50.4069 65.3551 50.3853 65.2332 50.4318C65.1131 50.4821 65.0293 50.5934 65.0138 50.7232C64.9855 50.9861 64.3415 57.1818 68.7434 58.6668ZM68.6018 57.8284C65.8843 56.6205 65.6862 52.9897 65.6862 51.4692C66.8694 52.4427 68.1024 53.3534 69.3803 54.1976L68.6018 57.8284Z" fill="#231F20"/>
<path id="Path_27" d="M36.0054 119.381C36.0054 119.381 36.6423 75.8971 43.1389 65.8858C49.6355 55.8745 66.4928 53.615 74.5321 59.5834C82.5715 65.5518 78.7004 111.168 78.7004 111.168C78.7004 111.168 53.0678 119.381 36.0054 119.381Z" fill="#E7816B"/>
<path id="Path_28" d="M68.9201 57.0255C73.1964 58.7696 77.193 61.1375 80.781 64.0526C86.3435 68.6924 98.0841 88.6439 98.0841 88.6439L82.5998 98.0584L68.7007 80.8495L68.9201 57.0255Z" fill="#E7816B"/>
<path id="Path_29" d="M49.8338 59.7326C49.8338 59.7326 41.7307 60.6492 37.4421 69.5805C35.1209 74.4263 29.1763 90.0721 29.1763 90.0721L47.0526 92.1397L49.8338 59.7326Z" fill="#E7816B"/>
<path id="Path_30" d="M81.4392 96.9713C81.3263 96.9708 81.2207 96.9152 81.1562 96.8221L67.3491 77.9434C67.2928 77.868 67.2686 77.7733 67.2819 77.68C67.2951 77.5867 67.3448 77.5026 67.4199 77.4461C67.579 77.3339 67.798 77.3684 67.9152 77.5242L81.7223 96.4029C81.8027 96.5105 81.8157 96.6546 81.7557 96.7749C81.6958 96.8953 81.5733 96.9713 81.4392 96.9713Z" fill="#231F20"/>
<path id="Path_31" d="M122.655 75.6342L126.109 64.8697L127.185 65.1824L125.012 75.7976C125.012 75.7976 123.483 77.2755 122.655 75.6342Z" fill="#231F20"/>
<path id="Shape_17" fill-rule="evenodd" clip-rule="evenodd" d="M123.476 76.7639H123.717C124.294 76.7249 124.839 76.4863 125.26 76.0889C125.31 76.0412 125.345 75.9793 125.359 75.9113L127.532 65.2534C127.568 65.0723 127.461 64.893 127.284 64.8413L126.208 64.5287C126.023 64.4809 125.833 64.5827 125.769 64.7632L122.337 75.5418C122.302 75.6283 122.302 75.7254 122.337 75.8118C122.537 76.2989 122.963 76.6554 123.476 76.7639ZM123.568 76.0463C123.324 75.9863 123.119 75.8195 123.009 75.5916L126.314 65.3103L126.746 65.4311L124.658 75.6129C124.365 75.8944 123.974 76.0499 123.568 76.0463Z" fill="#231F20"/>
<path id="Path_32" d="M57.3497 51.2632C50.9805 49.8421 43.9036 50.8368 38.7586 54.8158C36.5782 56.4136 34.9402 58.6461 34.0666 61.2105C33.2265 63.8258 33.7184 66.6886 35.3829 68.87C40.266 74.7603 50.9876 74.7318 57.6186 72.8063C62.1408 71.4989 75.5303 65.1184 71.8432 58.8516C69.1894 54.3682 62.1266 52.2934 57.3497 51.2632Z" fill="#E7816B"/>
<path id="Path_33" d="M49.2395 73.3392C45.0194 73.2163 40.8984 72.0262 37.2583 69.8789C37.1769 69.8305 37.1187 69.7507 37.0973 69.6581C37.076 69.5655 37.0932 69.4682 37.1451 69.3887C37.2508 69.2241 37.4692 69.1764 37.6334 69.2821C37.7183 69.3389 46.4725 74.8029 54.7595 71.6482C58.7368 70.1347 61.1288 67.4489 63.4146 64.8555C65.9411 62.0134 68.326 59.3276 72.4448 58.9511C72.5387 58.9432 72.6318 58.9733 72.7036 59.0347C72.7753 59.096 72.8197 59.1836 72.8269 59.2779C72.8368 59.3715 72.8085 59.465 72.7485 59.5373C72.6885 59.6096 72.6019 59.6544 72.5085 59.6616C68.6728 60.0097 66.4789 62.5037 63.9454 65.3458C61.6949 67.8824 59.1472 70.7529 55.0072 72.3303C53.1612 73.0138 51.207 73.3557 49.2395 73.3392Z" fill="#231F20"/>
<path id="Path_34" d="M36.6422 103.842C36.5484 103.838 36.4598 103.797 36.3961 103.728C36.3324 103.659 36.2987 103.567 36.3025 103.473C36.8192 92.225 39.1333 76.0392 39.1333 75.8758C39.1659 75.6835 39.3442 75.5517 39.5367 75.5774C39.7271 75.6066 39.8593 75.7835 39.8339 75.9753C39.8339 76.1387 37.4915 92.3174 37.0032 103.501C36.9955 103.694 36.835 103.846 36.6422 103.842Z" fill="#231F20"/>
<path id="Path_35" d="M90.9155 174.319H105.954C105.954 174.319 107.589 170.66 111.113 170.156C111.113 170.156 124.828 175.975 122.811 177.168C120.794 178.362 89.854 178.234 89.854 178.234L90.9155 174.319Z" fill="#231F20"/>
<path id="Shape_18" fill-rule="evenodd" clip-rule="evenodd" d="M89.8466 178.597H93.01C101.212 178.597 121.275 178.49 122.995 177.453C123.234 177.325 123.38 177.071 123.37 176.799C123.278 175.037 114.078 171.001 111.247 169.807C111.187 169.79 111.123 169.79 111.063 169.807C107.857 170.269 106.152 173.154 105.734 173.971H90.9152C90.7533 173.969 90.6105 174.077 90.5684 174.234L89.5069 178.149C89.4777 178.257 89.5013 178.373 89.5706 178.462C89.6367 178.547 89.7387 178.597 89.8466 178.597ZM122.634 176.863C121.233 177.694 102.72 177.922 90.3137 177.886L91.1841 174.674H105.954C106.093 174.676 106.221 174.596 106.279 174.468C106.293 174.433 107.85 171.044 111.063 170.518C116.64 172.891 122.634 175.982 122.634 176.863Z" fill="#231F20"/>
<path id="Path_36" d="M79.5498 139.368C89.1249 137.343 95.5437 132.846 91.7787 126.778C88.0138 120.71 60.9729 124.646 55.6864 120.149C50.4 115.651 52.2895 91.7987 46.4864 87.7132C40.6833 83.6276 15.808 79.4995 13.0267 84.6579C10.2455 89.8163 13.0267 127.353 21.1298 135.688C29.2329 144.022 70.2083 141.301 79.5498 139.368Z" fill="#231F20"/>
<path id="Shape_19" fill-rule="evenodd" clip-rule="evenodd" d="M49.862 141.749H51.4614C62.8482 141.749 74.7657 140.704 79.6417 139.624C86.7399 138.125 91.3965 135.489 92.8119 132.206C93.5762 130.43 93.3356 128.512 92.1042 126.522C89.974 123.097 81.0784 122.735 72.4799 122.387L72.4536 122.386C65.4769 122.102 58.2736 121.809 55.927 119.808C53.4574 117.698 52.5727 110.871 51.7165 104.263L51.7162 104.261L51.7122 104.23C50.7722 97.0068 49.801 89.5432 46.6845 87.3508C41.7307 83.8834 23.9464 80.5439 16.2537 82.3771C14.4137 82.8461 13.2319 83.5495 12.7153 84.5087C9.70758 90.1147 12.8356 127.666 20.8467 135.965C25.3405 140.569 39.1051 141.656 49.862 141.749ZM16.3953 83.1018C18.1175 82.7446 19.8739 82.5801 21.6322 82.6116C30.1174 82.6116 42.4313 85.2903 46.2528 87.9974C49.126 90.0082 50.0814 97.3692 50.9943 104.418C51.9073 111.466 52.7707 118.124 55.4457 120.412C57.9793 122.579 64.9996 122.863 72.4304 123.161L72.4546 123.162C80.8827 123.503 89.5513 123.854 91.4814 126.963C92.5854 128.746 92.8048 130.444 92.1396 132.007C90.8587 135.034 86.2445 137.592 79.4719 139.013C70.0808 140.967 29.3177 143.639 21.3845 135.461C13.5857 127.417 10.5922 89.9442 13.338 84.8497C13.7485 84.0753 14.7817 83.4855 16.3953 83.1018Z" fill="#231F20"/>
<path id="Path_37" d="M97.3199 119.737H97.2633L74.4473 115.729C74.2518 115.696 74.1203 115.51 74.1536 115.314C74.1868 115.117 74.3721 114.985 74.5676 115.019L97.3836 119.026C97.579 119.044 97.7232 119.217 97.7056 119.413C97.688 119.609 97.5153 119.754 97.3199 119.737Z" fill="#D1D3D4"/>
<path id="Path_38" d="M163.1 166.368L162.392 166.29C162.392 166.084 164.621 145.514 157.53 136.377L158.089 135.944C161.147 139.88 162.923 146.204 163.355 154.737C163.551 158.615 163.465 162.503 163.1 166.368Z" fill="#231F20"/>
<path id="Path_39" d="M160.658 168.99C160.647 168.751 160.671 168.512 160.729 168.28C162.421 157.515 159.554 152.499 156.851 150.183L157.311 149.643C160.142 152.073 163.171 157.302 161.43 168.393C161.387 168.663 161.359 168.841 161.359 168.912L160.658 168.99Z" fill="#231F20"/>
<path id="Path_40" d="M156.986 145.614C156.413 145.277 155.766 145.087 155.103 145.06C153.914 144.889 152.707 145.22 151.77 145.976C151.536 146.204 151.331 146.587 151.543 146.836C151.669 146.952 151.827 147.026 151.996 147.049C152.938 147.319 153.674 148.058 153.942 149.003C153.454 148.641 153.037 148.179 152.527 147.817C152.056 147.42 151.45 147.221 150.836 147.262C150.171 147.42 149.585 147.814 149.187 148.371C148.73 148.862 148.35 149.42 148.062 150.026C147.76 150.635 147.671 151.328 147.807 151.994C148.453 151.808 149.13 151.762 149.795 151.859C150.268 151.902 150.718 152.088 151.083 152.392C151.194 152.478 151.273 152.598 151.31 152.733C151.334 153.019 151.143 153.278 150.864 153.337C150.594 153.401 150.313 153.401 150.043 153.337C149.466 153.219 148.882 153.136 148.295 153.089C148.075 153.06 147.852 153.075 147.637 153.131C147.119 153.422 146.836 154.006 146.929 154.595C146.919 154.836 147.008 155.07 147.177 155.242C147.467 155.469 147.885 155.306 148.224 155.163C148.817 154.915 149.451 154.78 150.093 154.766C150.165 154.759 150.238 154.771 150.305 154.801C150.377 154.852 150.425 154.931 150.436 155.019C150.447 155.107 150.42 155.196 150.362 155.263C150.242 155.397 150.084 155.489 149.909 155.526C149.423 155.68 148.926 155.797 148.422 155.874C148.132 155.917 147.793 155.981 147.651 156.243C147.596 156.359 147.57 156.485 147.573 156.613C147.545 157.577 147.822 158.525 148.366 159.32C148.454 159.464 148.569 159.59 148.706 159.689C148.9 159.793 149.115 159.851 149.335 159.86C151.02 160.035 152.721 159.791 154.289 159.149C154.371 159.121 154.442 159.069 154.494 159C154.586 158.837 154.431 158.645 154.31 158.503C153.787 157.856 153.907 156.926 154.056 156.108C154.068 155.95 154.132 155.799 154.24 155.682C154.445 155.543 154.723 155.586 154.877 155.782C155.02 155.976 155.101 156.208 155.11 156.449C155.215 157.29 155.147 158.144 154.912 158.958C155.727 158.767 156.521 158.496 157.283 158.148C157.899 157.908 158.48 157.585 159.01 157.188C159.542 156.785 159.915 156.207 160.064 155.554C160.096 155.433 160.083 155.305 160.029 155.192C159.974 155.114 159.901 155.051 159.816 155.007C159.078 154.528 158.497 153.841 158.146 153.032C158.075 152.861 158.04 152.627 158.196 152.542C158.262 152.52 158.334 152.52 158.401 152.542C159.293 152.691 159.746 153.693 160.482 154.226C160.54 154.274 160.611 154.304 160.687 154.311C160.778 154.311 160.866 154.272 160.927 154.204C161.223 153.928 161.424 153.565 161.501 153.167C161.714 152.385 161.67 151.555 161.373 150.801C161.064 150.045 160.428 149.472 159.646 149.245C159.285 149.161 158.91 149.144 158.542 149.195C158.415 149.195 157.736 149.437 157.644 149.351C157.552 149.266 157.913 148.754 157.998 148.584C158.458 147.532 157.842 146.182 156.986 145.614Z" fill="#231F20"/>
<path id="Path_41" d="M167.679 139.184C166.551 139.174 165.491 139.725 164.848 140.654C164.419 141.397 164.245 142.261 164.353 143.113C164.463 143.955 164.667 144.782 164.961 145.578C165.517 144.577 166.528 143.915 167.665 143.809C168.818 143.71 167.474 144.825 167.275 145.06C166.624 145.827 166.002 146.616 165.386 147.412C165.206 147.611 165.085 147.857 165.039 148.122C165.037 148.408 165.121 148.688 165.28 148.925C165.759 149.99 166.487 150.924 167.403 151.646C167.656 151.869 168.013 151.927 168.323 151.796C168.466 151.675 168.574 151.518 168.634 151.341C168.973 150.626 169.414 149.966 169.943 149.38C170.071 149.231 170.276 149.081 170.439 149.188C170.602 149.294 170.573 149.458 170.559 149.614L170.411 151.199C170.312 151.77 170.346 152.356 170.51 152.911C170.885 153.92 172.017 154.424 173.071 154.623C173.359 154.702 173.662 154.702 173.949 154.623C174.515 154.424 174.749 153.749 174.848 153.153C174.959 152.371 175.28 151.634 175.775 151.021C175.904 152.053 176.233 153.05 176.744 153.956C177.001 154.443 177.355 154.871 177.785 155.213C178.242 155.539 178.767 155.758 179.32 155.853C180.254 156.021 181.205 156.074 182.151 156.009C182.806 156.017 183.458 155.933 184.09 155.76C184.727 155.581 185.273 155.168 185.619 154.602C186.178 153.593 185.746 152.293 185.024 151.398C184.303 150.502 183.326 149.834 182.576 148.961C183.512 149.219 184.383 149.674 185.131 150.296C185.309 150.502 185.567 150.621 185.838 150.623C185.963 150.596 186.076 150.532 186.164 150.438C187.282 149.316 185.994 147.419 185.399 146.41C185.083 145.692 184.521 145.112 183.814 144.776C183.396 144.669 182.958 144.669 182.54 144.776C181.903 144.882 178.747 146.324 180.092 144.427C180.825 143.576 181.902 143.104 183.022 143.141C183.567 143.191 184.395 143.632 184.38 142.608C184.342 142.242 184.2 141.894 183.97 141.607C183.532 140.949 183.06 140.316 182.555 139.709C182.429 139.524 182.24 139.39 182.024 139.333C181.836 139.326 181.65 139.378 181.493 139.482C180.202 140.267 178.776 140.802 177.289 141.059C176.95 141.059 176.475 140.953 176.532 140.619C176.566 140.497 176.644 140.393 176.751 140.328C177.65 139.617 178.995 139.923 179.915 139.269C180.192 139.092 180.376 138.8 180.417 138.473C180.417 137.997 180.028 137.621 179.646 137.329C178.691 136.497 177.52 135.952 176.27 135.759C174.409 135.61 172.732 136.839 171.479 138.239C171.062 138.715 170.771 139.951 170.127 139.873C169.721 139.729 169.324 139.56 168.939 139.368C168.531 139.241 168.106 139.178 167.679 139.184Z" fill="#231F20"/>
<path id="Path_42" d="M158.663 129.35C158.583 128.631 158.255 127.962 157.736 127.46C156.787 126.593 155.365 126.551 154.098 126.749C153.148 126.953 152.216 127.231 151.31 127.581C150.397 127.844 150.128 128.05 150.942 128.796C151.515 129.314 153.065 131.169 152.357 132.057C151.649 132.945 150.461 130.679 150.001 130.302C149.4 129.714 148.603 129.372 147.764 129.343C147.03 129.469 146.356 129.827 145.839 130.366C145.288 130.856 144.763 131.375 144.268 131.922C144.188 132 144.125 132.095 144.084 132.199C143.971 132.611 144.53 132.853 144.948 132.91C146.144 133.13 147.481 133.755 147.722 134.949C146.49 135.254 145.33 134.004 144.07 134.139C143.141 134.363 142.385 135.037 142.053 135.937C141.713 136.736 141.608 137.616 141.749 138.473C142.812 138.103 143.951 138.005 145.061 138.189C145.199 138.197 145.33 138.255 145.429 138.352C145.534 138.551 145.462 138.797 145.266 138.907C145.074 139.003 144.857 139.04 144.643 139.013H142.591C142.39 138.992 142.188 139.039 142.018 139.148C141.879 139.292 141.799 139.481 141.791 139.681C141.659 140.623 141.647 141.578 141.756 142.523C141.773 143.11 142.001 143.671 142.4 144.101C142.72 144.343 143.094 144.504 143.49 144.569C144.526 144.819 145.587 144.953 146.653 144.967C146.179 144.301 146.06 143.444 146.335 142.672C146.759 141.678 147.481 142.253 147.517 143.156C147.517 143.582 147.439 144.001 147.425 144.427C147.417 144.508 147.432 144.589 147.467 144.662C147.51 144.717 147.566 144.761 147.63 144.79C148.193 145.095 148.848 145.181 149.47 145.031C149.647 144.996 149.814 144.921 149.958 144.811C150.287 144.417 150.399 143.884 150.255 143.39L149.965 140.825C149.933 140.704 149.959 140.575 150.036 140.477C150.163 140.349 150.39 140.477 150.524 140.576C151.052 141.048 151.334 141.737 151.289 142.445C151.289 142.85 151.119 143.241 151.09 143.639C151.032 144.047 151.193 144.455 151.515 144.712C151.856 144.876 152.249 144.896 152.605 144.768C153.078 144.699 153.515 144.471 153.843 144.122C154.125 143.674 154.21 143.128 154.077 142.616C153.936 142.111 153.836 141.595 153.78 141.074C153.78 140.022 154.855 138.516 155.032 140.363C155.039 140.966 155.004 141.57 154.926 142.168C154.909 142.245 154.909 142.325 154.926 142.402C155.021 142.529 155.172 142.601 155.329 142.594C156.162 142.667 156.998 142.505 157.743 142.125C158.256 141.875 158.706 141.51 159.059 141.059C159.321 140.689 159.541 140.291 159.717 139.873C160.573 138.047 161.939 136.619 160.347 134.665C159.802 133.997 158.79 133.819 158.281 133.137C157.679 132.327 158.606 131.041 158.641 130.025C158.666 129.801 158.673 129.575 158.663 129.35Z" fill="#231F20"/>
<path id="Path_43" d="M153.561 164.237H171.607L170.191 177.836C169.981 179.905 168.243 181.478 166.172 181.474H158.96C156.891 181.474 155.158 179.903 154.948 177.836L153.561 164.237Z" fill="white"/>
<path id="Shape_20" fill-rule="evenodd" clip-rule="evenodd" d="M158.96 181.851H166.2C168.439 181.829 170.303 180.117 170.524 177.879L171.939 164.279C171.952 164.178 171.918 164.076 171.847 164.002C171.78 163.924 171.681 163.88 171.578 163.882H153.532C153.427 163.88 153.327 163.924 153.256 164.002C153.19 164.079 153.157 164.179 153.164 164.279L154.579 177.879C154.805 180.137 156.7 181.855 158.96 181.851ZM155.308 177.808L153.964 164.613H171.203L169.851 177.808C169.662 179.69 168.083 181.121 166.2 181.119H158.96C157.076 181.121 155.497 179.69 155.308 177.808Z" fill="#231F20"/>
<path id="Path_44" d="M165.089 164.486C165.089 164.358 163.673 151.341 170.042 140.853L170.651 141.223C164.416 151.497 165.803 164.272 165.818 164.4L165.089 164.486Z" fill="#231F20"/>
<path id="Path_45" d="M148.698 139.795C148.609 139.793 148.523 139.757 148.458 139.695C148.391 139.629 148.353 139.538 148.353 139.443C148.353 139.348 148.391 139.257 148.458 139.191C152.152 135.283 157.969 132.903 158.217 132.796C158.399 132.723 158.604 132.813 158.677 132.995C158.749 133.177 158.66 133.384 158.479 133.457C158.422 133.457 152.555 135.873 148.967 139.674C148.899 139.752 148.801 139.796 148.698 139.795Z" fill="white"/>
<path id="Path_46" d="M151.189 157.899C151.066 157.898 150.953 157.833 150.889 157.727C150.826 157.621 150.821 157.49 150.878 157.38C152.22 154.849 153.922 152.527 155.931 150.488C155.996 150.421 156.085 150.384 156.179 150.384C156.272 150.384 156.361 150.421 156.426 150.488C156.561 150.626 156.561 150.847 156.426 150.986C154.476 152.975 152.822 155.236 151.515 157.7C151.453 157.823 151.327 157.9 151.189 157.899Z" fill="white"/>
<path id="Path_47" d="M181.281 152.868C181.162 152.867 181.052 152.809 180.983 152.712C180.814 152.449 176.737 146.317 171.904 142.694C171.747 142.576 171.716 142.353 171.833 142.196C171.952 142.043 172.171 142.012 172.328 142.125C177.155 145.784 181.132 151.661 181.571 152.314C181.677 152.477 181.633 152.696 181.472 152.804C181.416 152.846 181.35 152.868 181.281 152.868Z" fill="white"/>
<rect id="Rectangle_4" x="136.441" y="29.45" width="42.964" height="30.2826" fill="white"/>
<path id="Shape_21" fill-rule="evenodd" clip-rule="evenodd" d="M136.441 60.0879H179.398C179.594 60.0879 179.752 59.9288 179.752 59.7326V29.45C179.752 29.2538 179.594 29.0947 179.398 29.0947H136.441C136.246 29.0947 136.087 29.2538 136.087 29.45V59.7326C136.087 59.9288 136.246 60.0879 136.441 60.0879ZM179.044 59.3774H136.795V29.8053H179.044V59.3774Z" fill="#D1D3D4"/>
<path id="Path_48" d="M164.169 88.4805C163.994 88.4798 163.845 88.3543 163.815 88.1821L162.074 76.8421L159.031 78.1921C158.944 78.2301 158.847 78.232 158.759 78.1973C158.671 78.1626 158.601 78.0943 158.564 78.0074C158.526 77.9217 158.524 77.8245 158.559 77.7376C158.594 77.6507 158.662 77.5815 158.748 77.5455L162.222 76.0392C162.32 75.9898 162.436 75.9898 162.534 76.0392C162.631 76.0918 162.699 76.186 162.718 76.295L164.529 88.0542C164.546 88.1478 164.523 88.244 164.467 88.3205C164.411 88.3969 164.326 88.4471 164.232 88.4592L164.169 88.4805Z" fill="#231F20"/>
<path id="Path_49" d="M170.17 100.652H161.309L160.828 81.5032H170.651L170.17 100.652Z" fill="white"/>
<path id="Shape_22" fill-rule="evenodd" clip-rule="evenodd" d="M161.31 101H170.17C170.335 100.989 170.47 100.865 170.496 100.702L170.977 81.5174C170.973 81.3202 170.819 81.159 170.623 81.1479H160.8C160.704 81.1508 160.612 81.1916 160.545 81.2616C160.48 81.3305 160.445 81.4224 160.446 81.5174L160.956 100.659C160.964 100.85 161.12 101 161.31 101ZM169.845 100.289H161.678L161.189 81.8513H170.305L169.845 100.289Z" fill="#231F20"/>
<rect id="Rectangle_5" x="159.93" y="79.5634" width="11.6203" height="1.93974" fill="white"/>
<path id="Shape_23" fill-rule="evenodd" clip-rule="evenodd" d="M159.93 81.8584H171.55C171.745 81.8584 171.904 81.6994 171.904 81.5032V79.5634C171.904 79.3672 171.745 79.2082 171.55 79.2082H159.93C159.734 79.2082 159.576 79.3672 159.576 79.5634V81.5032C159.576 81.6994 159.734 81.8584 159.93 81.8584ZM171.196 81.1479H160.283V79.9187H171.196V81.1479Z" fill="#231F20"/>
<path id="Shape_24" fill-rule="evenodd" clip-rule="evenodd" d="M161.76 91.8211C162.533 93.3965 164.188 94.3353 165.931 94.1861C168.175 94.0824 169.912 92.176 169.816 89.9229C169.81 88.167 168.732 86.5945 167.1 85.9617C165.469 85.3288 163.618 85.765 162.437 87.0605C161.257 88.3559 160.988 90.2457 161.76 91.8211ZM162.416 88.329C163.079 87.0203 164.476 86.256 165.931 86.4058C167.784 86.509 169.205 88.0976 169.108 89.9584C169.101 91.4267 168.194 92.739 166.827 93.2607C165.46 93.7824 163.914 93.406 162.937 92.3136C161.96 91.2211 161.753 89.6377 162.416 88.329Z" fill="#D1D3D4"/>
<path id="Shape_25" fill-rule="evenodd" clip-rule="evenodd" d="M146.504 53.2953C147.324 53.5815 148.185 53.7303 149.052 53.7358C151.027 53.6424 152.93 52.9651 154.523 51.7889C156.263 50.6592 157.028 49.5437 156.858 48.3784C156.685 47.6784 156.328 47.0379 155.825 46.5239C155.391 46.1068 155.084 45.5746 154.94 44.9892C154.964 44.3256 155.18 43.6834 155.563 43.1418C156.662 41.3461 156.771 39.1113 155.853 37.216C154.82 35.2195 152.654 33.8908 149.908 33.5782C147.93 33.3817 145.977 34.1445 144.65 35.6316C143.44 37.0595 142.944 38.9643 143.306 40.8042C143.362 41.0884 143.433 41.3797 143.511 41.6782L143.519 41.7106C143.799 42.8709 144.063 43.966 143.362 44.7192C143.027 45.0175 142.644 45.2576 142.23 45.4297C141.607 45.6639 141.065 46.0765 140.673 46.6163C140.426 47.0716 140.341 47.5981 140.432 48.1084C140.687 49.5137 141.509 50.7506 142.704 51.526L142.704 51.5261C142.938 51.6824 143.171 51.8387 143.412 51.9737C144.397 52.5145 145.433 52.9572 146.504 53.2953ZM146.731 52.6203C145.703 52.2956 144.71 51.8696 143.766 51.3484V51.3839C143.546 51.255 143.334 51.1151 143.129 50.9647C142.097 50.3008 141.379 49.2439 141.14 48.0374C141.072 47.6846 141.124 47.319 141.289 47C141.615 46.5823 142.051 46.2648 142.548 46.0834C143.042 45.8711 143.495 45.5728 143.886 45.2024C144.855 44.1656 144.509 42.7527 144.205 41.5098L144.204 41.5076C144.134 41.2234 144.063 40.9392 144.006 40.6692C143.688 39.0451 144.123 37.3637 145.188 36.1005C146.359 34.7824 148.087 34.1063 149.838 34.2816C152.343 34.5729 154.31 35.7595 155.23 37.5429C156.04 39.2485 155.923 41.2522 154.919 42.8505C154.472 43.502 154.237 44.2764 154.247 45.0674C154.401 45.7923 154.763 46.4563 155.287 46.9787C155.704 47.3963 156.006 47.9152 156.164 48.485C156.271 49.3447 155.634 50.2258 154.147 51.1992C152.06 52.5279 149.717 53.6434 146.731 52.6203Z" fill="#D1D3D4"/>
<path id="Shape_26" fill-rule="evenodd" clip-rule="evenodd" d="M163.036 52.4284C164.712 53.1313 166.507 53.5052 168.323 53.5297C169.379 53.551 170.433 53.4048 171.444 53.0963C173.586 52.4175 175.257 50.7214 175.909 48.5632C176.366 46.9092 175.922 45.1361 174.742 43.895C172.59 41.5218 167.12 40.5768 164.289 41.5218C163.68 41.739 163.084 41.9929 162.506 42.2821C161.623 42.7646 160.666 43.096 159.675 43.2626C158.382 43.3152 157.092 43.1174 155.874 42.68C154.176 42.1968 152.428 41.7066 150.786 42.4171C149.082 43.2589 148.121 45.116 148.415 47C148.655 48.5255 149.329 49.9491 150.354 51.0997C151.562 52.6453 153.465 53.4738 155.414 53.3024C156.273 53.1525 157.103 52.8722 157.877 52.4711C159.313 51.4937 161.177 51.4221 162.682 52.2863L163.036 52.4284ZM160.658 50.9718H160.489C159.481 51.0454 158.501 51.3362 157.615 51.8245C156.908 52.1931 156.149 52.4541 155.365 52.5989C153.242 52.8689 151.671 51.4763 150.921 50.6308C149.975 49.5822 149.351 48.2821 149.123 46.8863C148.873 45.3206 149.652 43.7708 151.055 43.0424C152.459 42.4189 154.011 42.8622 155.648 43.3297L155.662 43.3337C156.969 43.7993 158.353 44.0067 159.738 43.9447C160.798 43.7575 161.819 43.395 162.76 42.8718C163.314 42.6001 163.883 42.3628 164.466 42.1613C167.056 41.2874 172.229 42.2039 174.168 44.3355C175.184 45.4027 175.568 46.9263 175.18 48.35C174.586 50.2721 173.088 51.7782 171.175 52.3787C168.558 53.1008 165.772 52.8821 163.298 51.7605L162.958 51.6184C162.235 51.2697 161.457 51.0509 160.658 50.9718Z" fill="#D1D3D4"/>
<path id="Shape_27" fill-rule="evenodd" clip-rule="evenodd" d="M164.806 47.1492C165.432 47.877 166.362 48.2688 167.318 48.2079L167.764 48.2221C169.625 48.1799 171.427 47.5593 172.923 46.4458C175.768 44.1366 174.855 41.8558 174.055 40.7047C171.798 37.4505 164.876 35.1555 161.147 37.3582C159.782 38.191 158.831 39.5638 158.528 41.1382C158.281 42.3401 158.568 43.5907 159.314 44.5629C159.983 45.3485 160.953 45.8131 161.982 45.8418C162.554 45.8917 163.112 46.0433 163.631 46.2895C164.064 46.5132 164.461 46.8033 164.806 47.1492ZM161.508 37.9337C162.509 37.3937 163.634 37.1289 164.77 37.1663C168.068 37.1663 171.96 38.8929 173.475 41.0813C174.6 42.7368 174.282 44.3924 172.477 45.8632C171.087 46.8649 169.431 47.4266 167.721 47.476C166.819 47.6592 165.889 47.3352 165.294 46.6305C164.46 45.722 163.309 45.1722 162.081 45.0958C161.233 45.0865 160.43 44.7142 159.873 44.0726C159.25 43.2675 159.014 42.2269 159.229 41.2305C159.494 39.859 160.321 38.6625 161.508 37.9337Z" fill="#D1D3D4"/>
<path id="Path_50" d="M59.317 45.6216C59.317 45.6216 61.6028 43.76 59.317 41.3584H55.6299C55.6299 41.3584 56.4225 44.4634 55.6299 45.6216H59.317Z" fill="#231F20"/>
<path id="Shape_28" fill-rule="evenodd" clip-rule="evenodd" d="M55.63 45.9768H59.317C59.3894 45.9714 59.4585 45.9441 59.5152 45.8987C60.1625 45.3376 60.5725 44.5499 60.6617 43.6961C60.6722 42.7156 60.2654 41.7772 59.5435 41.1168C59.4744 41.0513 59.3838 41.0134 59.2887 41.0103H55.6017C55.4917 41.0096 55.3875 41.0593 55.3186 41.1453C55.2556 41.2363 55.2326 41.3493 55.2549 41.4579C55.4672 42.275 55.8847 44.5842 55.3115 45.4155C55.2443 45.5294 55.2443 45.6711 55.3115 45.785C55.3754 45.902 55.4971 45.9753 55.63 45.9768ZM59.1755 45.2663H56.182C56.3964 44.0892 56.3529 42.8793 56.0546 41.7208H59.1401C59.6629 42.2235 59.9571 42.9196 59.954 43.6463C59.8947 44.2621 59.6186 44.8365 59.1755 45.2663Z" fill="#231F20"/>
<path id="Path_51" d="M57.3143 44.2147C57.4229 43.3744 57.1258 42.5325 56.5146 41.9482C56.2442 41.595 55.933 41.2754 55.5875 40.9961C54.9239 40.5628 54.1802 40.268 53.4007 40.1292C51.681 39.71 49.6712 40.2429 47.9161 40.2784C46.0308 40.3143 44.1579 39.9663 42.4103 39.2553C41.8098 39.0517 41.2713 38.697 40.8463 38.225C40.4075 40.8042 40.4641 43.6463 41.9432 45.8134C43.1965 47.4493 44.929 48.6495 46.897 49.2453C49.5606 50.3241 52.5962 49.8817 54.8444 48.0871C55.8536 47.322 56.6325 46.2917 57.0949 45.11C57.1974 44.8196 57.2709 44.5197 57.3143 44.2147Z" fill="white"/>
<path id="Shape_29" fill-rule="evenodd" clip-rule="evenodd" d="M46.7485 49.5792C47.778 49.9585 48.8647 50.158 49.9614 50.1689C51.8168 50.1558 53.6121 49.5065 55.0497 48.3287C56.1077 47.5204 56.9251 46.4368 57.4134 45.1953C57.5345 44.8834 57.6222 44.5594 57.6752 44.2289C57.8049 43.2882 57.4818 42.3415 56.8048 41.6782C56.5118 41.3092 56.1822 40.9712 55.8211 40.6692C55.1173 40.2073 54.3277 39.8931 53.4999 39.7455C52.2565 39.5286 50.9853 39.5286 49.742 39.7455C49.6604 39.7546 49.5794 39.7639 49.4989 39.773C48.9513 39.8353 48.4292 39.8947 47.9232 39.8947C46.0806 39.9516 44.2451 39.64 42.5235 38.9782C41.983 38.7923 41.4968 38.475 41.1082 38.0545C41.0243 37.943 40.8822 37.8927 40.7472 37.9266C40.6126 37.9626 40.5107 38.0733 40.4854 38.2108C39.9263 41.4508 40.3085 44.0868 41.6319 46.0266C42.9249 47.7194 44.7146 48.962 46.7485 49.5792ZM42.2192 45.6074C41.0799 43.9234 40.7119 41.7208 41.0799 38.9497C41.4365 39.2178 41.8237 39.442 42.2334 39.6176C44.0332 40.3383 45.9575 40.6933 47.8949 40.6621C48.4586 40.6489 49.0587 40.587 49.6389 40.5272C49.6852 40.5224 49.7314 40.5176 49.7774 40.5129C50.9483 40.3107 52.145 40.3107 53.3159 40.5129C54.0482 40.6422 54.7479 40.915 55.3752 41.3158C55.6963 41.5636 55.9904 41.8446 56.2528 42.1542C56.7897 42.6671 57.0523 43.4054 56.9605 44.1437C56.9097 44.4254 56.8314 44.7015 56.7269 44.9679C56.2919 46.0926 55.5575 47.0757 54.6039 47.81C52.4456 49.5208 49.5405 49.941 46.9891 48.9113C45.0926 48.341 43.4235 47.1849 42.2192 45.6074Z" fill="#231F20"/>
<rect id="Rectangle_6" x="101" y="25.6913" width="30.0486" height="19.9232" fill="white"/>
<path id="Shape_30" fill-rule="evenodd" clip-rule="evenodd" d="M101 45.9768H131.048C131.242 45.9731 131.399 45.8162 131.402 45.6216V25.6842C131.399 25.4896 131.242 25.3327 131.048 25.3289H101C100.804 25.3289 100.646 25.488 100.646 25.6842V45.6216C100.646 45.8178 100.804 45.9768 101 45.9768ZM130.723 45.2663H101.325L101.354 26.0466H130.723V45.2663Z" fill="#D1D3D4"/>
<rect id="Rectangle_7" x="101" y="45.6216" width="30.0486" height="3.94342" fill="white"/>
<path id="Shape_31" fill-rule="evenodd" clip-rule="evenodd" d="M101 49.9203H131.048C131.244 49.9203 131.402 49.7612 131.402 49.565V45.6216C131.402 45.4254 131.244 45.2663 131.048 45.2663H101C100.804 45.2663 100.646 45.4254 100.646 45.6216V49.565C100.646 49.7612 100.804 49.9203 101 49.9203ZM130.723 49.2097H101.325L101.354 45.9768H130.723V49.2097Z" fill="#D1D3D4"/>
<path id="Path_52" d="M104.439 40.9818C104.301 40.9873 104.173 40.91 104.113 40.785C104.054 40.66 104.073 40.5113 104.163 40.4063C104.503 39.98 112.656 29.9403 120.256 30.5442C123.285 30.7858 125.352 32.3774 125.791 34.8074C126.197 36.9466 125.12 39.0929 123.165 40.0368C121.042 41.0245 119.075 41.0103 117.702 39.9942C116.487 39.0206 115.923 37.4426 116.244 35.9158C116.302 34.5906 117.192 33.4488 118.459 33.0737C119.763 32.7284 121.152 33.1232 122.082 34.1039C122.512 34.5795 122.605 35.272 122.316 35.8447C121.778 36.8892 121.141 37.4363 120.419 37.4647C119.266 37.4647 118.416 36.1503 118.381 36.0934C118.332 36.0125 118.317 35.9152 118.339 35.8231C118.362 35.731 118.42 35.6518 118.501 35.6032C118.581 35.554 118.677 35.5391 118.767 35.5619C118.858 35.5846 118.935 35.643 118.983 35.7239C119.167 36.0153 119.754 36.7897 120.398 36.7542C121.042 36.7187 121.403 36.0437 121.686 35.5179C121.846 35.1957 121.783 34.8067 121.53 34.5516C120.782 33.7873 119.683 33.4837 118.65 33.7558C117.66 34.0626 116.974 34.9682 116.944 36.0082C116.667 37.2742 117.121 38.5892 118.119 39.4116C119.273 40.2713 121.007 40.2642 122.868 39.4116C124.535 38.5934 125.438 36.7453 125.062 34.9211C124.687 32.8392 122.861 31.4679 120.171 31.2547C112.974 30.6579 104.793 40.7474 104.715 40.8539C104.647 40.9353 104.546 40.9821 104.439 40.9818Z" fill="#D1D3D4"/>
<path id="Shape_32" fill-rule="evenodd" clip-rule="evenodd" d="M104.595 64.145H116.173C116.368 64.145 116.527 63.9859 116.527 63.7897V54.5529C116.527 54.3567 116.368 54.1976 116.173 54.1976H104.595C104.4 54.1976 104.241 54.3567 104.241 54.5529V63.7897C104.241 63.9859 104.4 64.145 104.595 64.145ZM115.819 63.4345H104.949V54.9082H115.819V63.4345Z" fill="#D1D3D4"/>
<path id="Path_53" d="M110.384 56.2368C110.189 56.2368 110.03 56.0778 110.03 55.8816V53.6718C110.03 53.4756 110.189 53.3166 110.384 53.3166C110.58 53.3166 110.738 53.4756 110.738 53.6718V55.8674C110.742 55.964 110.706 56.0581 110.639 56.1278C110.573 56.1975 110.48 56.2369 110.384 56.2368Z" fill="#D1D3D4"/>
</g>
</g>
</g>
<defs>
<linearGradient id="paint0_linear_0_10321" x1="0" y1="202" x2="202" y2="202" gradientUnits="userSpaceOnUse">
<stop stop-color="#5D0202" stop-opacity="0.01"/>
<stop offset="1" stop-color="#5D0202" stop-opacity="0.497569"/>
</linearGradient>
</defs>
</svg>
