<svg width="202" height="202" viewBox="0 0 202 202" fill="none" xmlns="http://www.w3.org/2000/svg">
<g id="Group 23">
<circle id="Oval" opacity="0.202683" cx="101" cy="101" r="101" transform="matrix(-1 0 0 1 202 0)" fill="url(#paint0_linear_0_10195)"/>
<g id="designer_(1) 2">
<g id="designer_(1)">
<path id="Path" d="M164.845 138.136C164.845 138.136 187.439 79.1712 175.733 70.1788C164.028 61.1864 114.935 64.8177 112.246 68.0303C109.556 71.2428 93.7202 142.221 93.7202 142.221L164.845 138.136Z" fill="#231F20"/>
<path id="Shape" fill-rule="evenodd" clip-rule="evenodd" d="M93.425 142.461C93.4919 142.535 93.5864 142.577 93.6857 142.578L93.7063 142.591L164.865 138.473C165.001 138.467 165.12 138.381 165.167 138.253L165.17 138.244C165.339 137.802 170.939 123.153 175.013 107.617C180.605 86.3925 180.92 73.7346 175.946 69.918C168.797 64.4333 148.837 64.0969 140.603 64.2068C126.579 64.3921 113.474 66.0464 111.985 67.8243C109.268 71.0643 94.0013 139.262 93.3564 142.166C93.33 142.27 93.3556 142.38 93.425 142.461ZM140.617 64.8726H143.197C159.15 64.8726 170.862 66.8839 175.507 70.4465C186.54 78.9103 166.031 133.956 164.584 137.793L94.0974 141.857C99.6139 117.214 110.427 70.728 112.486 68.2499C113.686 66.8427 126.208 65.0648 140.617 64.8726Z" fill="#231F20"/>
<path id="Path_2" d="M73.1021 87.1888L62.9199 121.38C62.9199 121.38 83.9224 124.092 83.9224 123.316C83.9224 122.541 88.0392 85.6924 88.0392 85.6924L73.1021 87.1888Z" fill="white"/>
<path id="Shape_2" fill-rule="evenodd" clip-rule="evenodd" d="M62.8783 121.703C69.2525 122.541 79.318 123.762 82.8653 123.762C83.2937 123.802 83.7254 123.743 84.1278 123.591C84.2096 123.514 84.2588 123.408 84.265 123.296C84.265 122.602 86.9615 98.4053 88.3818 85.7061C88.3964 85.6044 88.3605 85.502 88.2858 85.4315C88.2148 85.357 88.1137 85.3191 88.0113 85.3286L73.0674 86.825C72.9278 86.8392 72.8109 86.9371 72.7723 87.0721L62.5901 121.264C62.5635 121.361 62.5799 121.464 62.635 121.549C62.6902 121.633 62.7788 121.689 62.8783 121.703ZM83.5652 123.097C81.9733 123.323 70.6385 122.026 63.338 121.092L73.3418 87.5114L87.6271 86.0768C87.5996 86.3229 87.5619 86.661 87.5153 87.0797C86.7796 93.678 83.8103 120.308 83.5652 123.097Z" fill="#231F20"/>
<path id="Path_3" d="M53.8011 78.6975C53.8903 78.7936 57.5062 77.8258 59.3725 80.0704C61.2388 82.3151 58.8168 84.3195 52.9229 83.1594C47.029 81.9993 53.8011 78.6975 53.8011 78.6975Z" fill="white"/>
<path id="Shape_3" fill-rule="evenodd" clip-rule="evenodd" d="M52.8542 83.5026C53.9 83.7157 54.9637 83.8283 56.031 83.839C58.055 83.839 59.5302 83.3173 60.0997 82.4181C60.5388 81.663 60.381 80.7637 59.64 79.8851C57.991 77.9082 55.097 78.2601 54.1163 78.3793C54.1094 78.3802 54.1027 78.381 54.0961 78.3818H53.8696C53.7984 78.3577 53.7213 78.3577 53.6501 78.3818C53.0326 78.6907 49.9724 80.2626 50.1714 81.814C50.2743 82.6171 51.1526 83.1663 52.8542 83.5026ZM50.8712 81.6904C50.7752 80.9285 52.5385 79.7203 53.8765 79.0339C53.9588 79.0339 54.0549 79.0339 54.1853 79.0064C55.139 78.8829 57.6845 78.5671 59.098 80.2558C59.5806 80.6859 59.7376 81.3749 59.4891 81.9719C58.9813 82.8299 56.9778 83.5575 52.9914 82.775C51.228 82.4249 50.8712 81.9444 50.8712 81.6904Z" fill="#231F20"/>
<path id="Path_4" d="M44.7372 71.5242C44.7372 71.5242 43.9962 70.6731 44.4628 70.0759C44.6757 69.8299 44.9942 69.7017 45.3181 69.7317C45.642 69.7616 45.9315 69.946 46.0958 70.2269C46.0958 70.2269 44.9294 70.6456 44.7372 71.5242Z" fill="white"/>
<path id="Shape_4" fill-rule="evenodd" clip-rule="evenodd" d="M44.4695 71.7576C44.538 71.8329 44.6354 71.8754 44.7371 71.8743L44.8263 71.8675C44.9549 71.8337 45.0533 71.73 45.0802 71.5997C45.2037 71.0437 45.9378 70.6593 46.2123 70.5632C46.3205 70.5241 46.4026 70.4343 46.4319 70.323C46.4655 70.2108 46.4397 70.0891 46.3632 70.0003C46.0861 69.6153 45.6436 69.3837 45.1694 69.3757C44.7843 69.3762 44.4214 69.5564 44.1882 69.8631C43.6736 70.5083 44.1265 71.3595 44.4695 71.7576ZM44.7508 70.2955C44.8557 70.1633 45.0144 70.0852 45.1831 70.0827L45.19 70.1102C45.2925 70.0955 45.397 70.1098 45.4919 70.1514C45.2086 70.3151 44.9575 70.5291 44.7508 70.7829C44.6715 70.6301 44.6715 70.4483 44.7508 70.2955Z" fill="#231F20"/>
<path id="Path_5" d="M46.3563 70.1925C45.5169 70.2608 44.8291 70.8868 44.6821 71.7164L59.3996 90.875C59.5865 88.9855 61.0403 87.4686 62.9195 87.2025L46.3563 70.1925Z" fill="white"/>
<path id="Shape_5" fill-rule="evenodd" clip-rule="evenodd" d="M59.1184 91.0878C59.1839 91.1734 59.2851 91.224 59.3928 91.2251L59.4957 91.2114C59.6366 91.1716 59.7379 91.0484 59.7496 90.9025C59.9238 89.173 61.2598 87.7881 62.9813 87.5526C63.1106 87.5303 63.2165 87.4376 63.2557 87.3124C63.2994 87.1875 63.2673 87.0486 63.1734 86.9554L46.6102 69.9454C46.5438 69.8762 46.4523 69.8366 46.3563 69.8356C45.3612 69.9136 44.5381 70.6418 44.3391 71.6203C44.3107 71.7273 44.3335 71.8414 44.4009 71.9292L59.1184 91.0878ZM59.2144 90.0513L45.0733 71.6478C45.2221 71.0976 45.6679 70.6781 46.226 70.5632L62.2266 86.9966C60.76 87.4217 59.6194 88.5784 59.2144 90.0513Z" fill="#231F20"/>
<path id="Path_6" d="M59.4001 90.875L64.4225 93.4835L65.0469 92.9L62.9199 87.2025C62.9199 87.2025 59.009 86.8113 59.4001 90.875Z" fill="white"/>
<path id="Shape_6" fill-rule="evenodd" clip-rule="evenodd" d="M64.2575 93.7924C64.3079 93.8203 64.3646 93.8345 64.4222 93.8336C64.5104 93.8339 64.5958 93.8022 64.6623 93.7443L65.2867 93.1609C65.3927 93.0633 65.4281 92.9107 65.3759 92.7764L63.2558 87.079C63.2087 86.9494 63.0911 86.8585 62.9539 86.8456C61.8545 86.754 60.7645 87.1076 59.928 87.8272C59.1759 88.6615 58.8494 89.7957 59.0429 90.9025C59.0539 91.0232 59.1266 91.1297 59.235 91.1839L64.2575 93.7924ZM64.3604 93.051L59.7359 90.6485C59.6135 89.8118 59.8643 88.9636 60.422 88.3283C61.0513 87.8008 61.852 87.5224 62.6726 87.5458L64.6349 92.8039L64.3604 93.051Z" fill="#231F20"/>
<path id="Path_7" d="M64.4224 93.4835L65.3829 94.5131L65.8358 93.9983L65.0467 92.9L64.4224 93.4835Z" fill="white"/>
<path id="Shape_7" fill-rule="evenodd" clip-rule="evenodd" d="M65.1289 94.7534C65.1921 94.8281 65.2851 94.8708 65.3828 94.8701H65.4103C65.5113 94.8702 65.6071 94.8248 65.671 94.7465L66.1238 94.2317C66.2271 94.1035 66.2271 93.9206 66.1238 93.7924L65.3348 92.6941C65.2753 92.612 65.1837 92.5591 65.0829 92.5487C64.9821 92.5382 64.8816 92.5711 64.8065 92.6392L64.1821 93.2226C64.1126 93.2867 64.0707 93.3753 64.0654 93.4698C64.0649 93.5634 64.0991 93.6539 64.1615 93.7237L65.1289 94.7534ZM65.376 93.9846L64.9231 93.4972L64.9849 93.4423L65.376 93.9846Z" fill="#231F20"/>
<path id="Path_8" d="M54.7339 92.3783C55.5436 90.7377 57.5745 87.2575 58.0411 85.7473C59.331 81.6286 51.7767 77.7708 49.3341 77.7708C46.8914 77.7708 41.7866 86.3102 41.7866 90.875C41.7866 95.4398 58.6998 130.393 58.6998 130.393L74.9268 122.966L54.7339 92.3783Z" fill="white"/>
<path id="Shape_8" fill-rule="evenodd" clip-rule="evenodd" d="M58.405 130.551C58.4631 130.673 58.5859 130.75 58.7206 130.75C58.78 130.759 58.8406 130.747 58.8921 130.716L75.126 123.275C75.2184 123.233 75.2883 123.153 75.3181 123.055C75.3443 122.955 75.3268 122.847 75.2701 122.76L55.1733 92.3508C55.3247 92.0678 55.4969 91.7408 55.686 91.382C55.8224 91.1228 55.9677 90.8471 56.1202 90.5592C56.9919 89.0468 57.7577 87.4757 58.4119 85.8571C58.7756 84.5365 58.4593 83.1215 57.5679 82.0817C55.585 79.4183 51.2143 77.4139 49.3343 77.4139C46.6104 77.4139 41.4507 86.2896 41.4507 90.875C41.4507 95.3454 56.9128 127.453 58.3244 130.384C58.3607 130.459 58.3878 130.515 58.405 130.551ZM42.1643 90.875C42.1643 86.3582 47.1867 78.1209 49.3343 78.1209C50.9124 78.1209 55.0773 79.9263 56.9916 82.5279C57.7444 83.3881 58.0197 84.5669 57.7257 85.6718C57.0848 87.247 56.3375 88.7767 55.4889 90.2503C55.0773 91.0191 54.6999 91.7262 54.4392 92.2479C54.3781 92.359 54.3781 92.4937 54.4392 92.6048L74.4262 122.808L58.8853 129.933L58.839 129.837C56.9526 125.9 42.1643 95.0398 42.1643 90.875Z" fill="#231F20"/>
<path id="Path_9" d="M141.07 99.2976L161.071 94.1974C160.385 93.2295 152.316 67.6047 143.808 63.4105C136.363 58.4681 118.709 55.1732 103.113 56.2921C103.113 56.2921 98.9963 56.1411 91.7782 59.0036C74.1995 65.9915 70.8101 90.3259 70.8101 90.3259L84.5327 95.0692C84.5327 95.0692 81.9117 126.542 79.4347 142.996C79.4347 142.996 109.775 148.934 153.949 141.624C153.983 141.61 141.152 103.952 141.07 99.2976Z" fill="#E7816B"/>
<path id="Path_10" d="M139.424 64.1175C136.775 66.8633 134.71 70.1582 131.787 72.7461C125.488 78.32 117.248 82.7338 108.609 82.1984C98.4272 81.5669 89.6241 74.6064 87.4148 64.4676C86.0425 58.1112 87.4696 52.2078 92.3823 47.7185C95.7787 44.6158 100.129 42.7212 104.575 41.5405C116.383 38.376 129.632 40.0578 139.712 46.9909C141.359 48.005 142.749 49.3864 143.774 51.0271C146.292 55.592 143.396 60.2872 140.13 63.4242C139.911 63.637 139.677 63.8773 139.424 64.1175Z" fill="#E7816B"/>
<path id="Path_11" d="M104.684 71.3114C104.582 71.3114 102.688 73.6179 102.592 73.6522C103.669 77.7159 104.808 83.0084 109.405 83.5301C118.73 84.5941 120.143 72.1558 121.9 66.2867C115.443 68.0989 110.887 68.8265 104.684 71.3114Z" fill="#231F20"/>
<path id="Shape_9" fill-rule="evenodd" clip-rule="evenodd" d="M109.371 83.8733C109.744 83.9161 110.12 83.939 110.496 83.9419C117.81 83.9351 119.985 75.231 121.405 69.3551C121.433 69.2476 121.459 69.1408 121.486 69.0346C121.73 68.0624 121.959 67.1481 122.195 66.3622C122.227 66.2434 122.196 66.1162 122.112 66.0258C122.025 65.9373 121.896 65.9031 121.776 65.9366C119.774 66.499 117.971 66.9517 116.223 67.3907L116.218 67.3919C112.25 68.3041 108.352 69.4993 104.554 70.9682C104.444 71.0163 104.431 71.0231 103.367 72.245C103.003 72.6706 102.503 73.2541 102.393 73.357C102.276 73.4382 102.222 73.5828 102.256 73.7208L102.434 74.4073L102.445 74.4495C103.493 78.4169 104.797 83.3535 109.371 83.8733ZM103.072 74.2357L102.949 73.762H102.969C103.12 73.5973 103.388 73.2952 103.868 72.6775C104.225 72.2587 104.705 71.7096 104.842 71.5723C108.603 70.1163 112.465 68.937 116.397 68.044C116.701 67.9663 117.008 67.888 117.32 67.8088C118.605 67.4822 119.955 67.1388 121.385 66.7466C121.179 67.488 120.973 68.3117 120.761 69.1697L120.756 69.1872C119.192 75.4598 117.055 84.0304 109.426 83.1594C105.311 82.7279 104.127 78.2372 103.079 74.2624L103.072 74.2357Z" fill="#231F20"/>
<path id="Path_12" d="M113.714 23.4322C112.342 23.3773 111.464 23.9745 110.283 24.4001C107.985 25.2101 106.915 23.2881 104.939 22.2653C98.5238 18.9288 90.6473 20.5801 86.1111 26.2123C84.742 27.8345 83.8553 29.8085 83.5518 31.9097C83.2636 34.2848 83.9292 36.7148 83.5175 39.0625C83.0059 41.8034 81.1178 44.0868 78.5225 45.1031C80.7191 45.2728 82.9285 45.0638 85.0544 44.4853C83.8181 45.9554 82.0069 46.8189 80.0868 46.8536C82.2749 48.5368 84.9635 49.4382 87.7235 49.414L82.8863 50.5466C87.003 53.1894 92.0187 53.9788 96.8696 53.7592C106.53 53.258 122.709 49.3042 122.428 36.7835C122.27 31.9853 119.635 23.7068 113.714 23.4322Z" fill="white"/>
<path id="Shape_10" fill-rule="evenodd" clip-rule="evenodd" d="M82.6734 50.8555C86.7764 53.4777 91.5107 54.1642 95.209 54.1642C95.7853 54.1642 96.3411 54.1504 96.9175 54.1092C99.8335 53.9582 107.299 53.2306 113.556 50.0936C119.814 46.9565 122.922 42.4741 122.798 36.7835C122.702 31.4155 119.724 23.3567 113.783 23.0958C112.843 23.0899 111.917 23.3088 111.079 23.7342C111.036 23.752 110.993 23.7699 110.95 23.7879C110.71 23.8882 110.463 23.9912 110.201 24.0843C108.76 24.5854 107.882 23.9196 106.77 23.0753C106.25 22.6592 105.694 22.2894 105.11 21.9701C98.5521 18.5539 90.4961 20.24 85.857 25.9995C84.4471 27.6733 83.5344 29.7089 83.2223 31.8754C83.1151 33.017 83.1151 34.1661 83.2223 35.3076C83.36 36.5448 83.3461 37.7943 83.1811 39.0281C82.6901 41.656 80.8721 43.8411 78.3782 44.8011C78.2251 44.8554 78.1327 45.0114 78.1586 45.1718C78.1803 45.3301 78.3083 45.4525 78.4674 45.4669C80.2904 45.6108 82.1247 45.4952 83.9153 45.1237C82.8215 46.0123 81.4612 46.5078 80.0524 46.5309C79.9047 46.5309 79.7736 46.6255 79.7269 46.7656C79.6802 46.9058 79.7284 47.0601 79.8465 47.1487C81.4941 48.4137 83.4254 49.2572 85.4728 49.6062L82.7832 50.2308C82.6517 50.2663 82.5511 50.3723 82.5224 50.5054C82.4992 50.6417 82.5584 50.7789 82.6734 50.8555ZM96.8283 53.4777C93.2672 53.6493 88.183 53.3061 83.7506 50.7319L87.7851 49.7229C87.9556 49.6822 88.0681 49.5194 88.0458 49.3453C88.0279 49.1704 87.8784 49.0388 87.7027 49.0433C85.3339 49.0666 83.0111 48.3883 81.0267 47.0938C82.6933 46.8279 84.2084 45.9701 85.2944 44.6775C85.3804 44.5562 85.3804 44.3938 85.2944 44.2725C85.2123 44.1447 85.056 44.0861 84.9102 44.1284C83.2604 44.5818 81.5574 44.8126 79.8465 44.8148C81.924 43.5772 83.367 41.5031 83.8055 39.1242C83.9814 37.8362 83.9998 36.5315 83.8604 35.239C83.7575 34.1454 83.7575 33.0445 83.8604 31.9509C84.1647 29.9245 85.0271 28.0229 86.351 26.4594C90.7822 20.9496 98.486 19.3374 104.753 22.6085C105.302 22.9073 105.823 23.2542 106.311 23.645C107.484 24.5374 108.595 25.3817 110.372 24.757C110.656 24.6604 110.924 24.5477 111.186 24.4379C111.221 24.4229 111.257 24.408 111.292 24.3932C112.039 24.0153 112.863 23.8156 113.7 23.8097C119.203 24.0775 121.941 31.745 122.057 36.8521C122.174 42.2613 119.196 46.5241 113.192 49.5307C106.983 52.6471 99.6826 53.3267 96.8283 53.4777Z" fill="#231F20"/>
<path id="Path_13" d="M101.906 61.8317L102.592 73.6522C102.592 73.6522 107.992 79.8302 114.942 76.0341C121.893 72.2381 121.625 66.218 121.625 66.218L117.062 44.0254C117.062 44.0254 110.757 42.5702 109.151 30.1456C103.772 34.4065 97.3437 37.1361 90.5435 38.0465C90.5435 38.0465 90.667 51.9469 93.1164 57.4728C95.5659 62.9986 101.906 61.8317 101.906 61.8317Z" fill="white"/>
<path id="Shape_11" fill-rule="evenodd" clip-rule="evenodd" d="M102.331 73.8787C102.372 73.9336 105.659 77.6061 110.379 77.6061C112.031 77.5887 113.65 77.1517 115.086 76.3362C122.044 72.5381 121.952 66.4579 121.948 66.1592C121.948 66.1545 121.948 66.1512 121.948 66.1494L117.378 43.9362C117.351 43.806 117.253 43.7022 117.124 43.6685C115.864 43.2393 114.748 42.4695 113.899 41.4444C112.328 39.7283 110.283 36.3716 109.474 30.0838C109.455 29.9595 109.371 29.8547 109.254 29.8092C109.135 29.7631 109 29.7869 108.904 29.871C103.565 34.0684 97.203 36.7649 90.4747 37.6827C90.3057 37.7096 90.1809 37.8547 90.1797 38.0259L90.1798 38.039C90.1886 38.7751 90.3469 52.1345 92.7801 57.5895C94.9552 62.4975 100.115 62.3603 101.563 62.2161L102.249 73.6728C102.251 73.749 102.28 73.822 102.331 73.8787ZM114.784 75.7115C108.52 79.1369 103.607 74.2357 102.921 73.4875L102.249 61.7768C102.241 61.6781 102.194 61.5866 102.118 61.5228C102.04 61.4647 101.94 61.4423 101.844 61.461L101.843 61.4611C101.588 61.5038 95.7355 62.4797 93.4251 57.2806C91.2363 52.3314 90.8933 40.3461 90.8933 38.2868C97.4321 37.3182 103.623 34.7218 108.897 30.7359C110.469 41.5817 115.628 43.8607 116.767 44.2382L121.289 66.2043C121.289 66.2049 121.289 66.2062 121.289 66.2083C121.292 66.3876 121.38 72.1001 114.784 75.7115Z" fill="#231F20"/>
<path id="Path_14" d="M114.489 50.2446C116.101 50.4875 117.744 50.0828 119.059 49.1188C120.865 47.6882 121.795 45.4202 121.515 43.1331C121.473 42.2924 121.238 41.4728 120.829 40.7374C120.424 39.9931 119.715 39.462 118.888 39.2821C117.874 39.2191 116.868 39.4864 116.019 40.0441C114.688 40.7305 114.647 41.4925 113.92 42.6182C114.002 42.5153 114.064 42.2269 114.146 42.124" fill="white"/>
<path id="Path_15" d="M115.409 50.6633C115.083 50.6621 114.757 50.6368 114.435 50.5878C114.246 50.5562 114.118 50.3789 114.146 50.1897C114.16 50.0999 114.209 50.0194 114.283 49.9664C114.356 49.9134 114.448 49.8924 114.538 49.9082C116.058 50.132 117.604 49.7446 118.84 48.8305C120.549 47.4697 121.426 45.3153 121.152 43.1468C121.124 42.3592 120.915 41.5887 120.541 40.8953C120.183 40.2453 119.564 39.7803 118.84 39.6185C117.989 39.4675 117.138 39.8587 116.191 40.3461C115.54 40.6628 115.031 41.2111 114.764 41.8837C114.62 42.1446 114.462 42.4397 114.249 42.7624C114.235 42.7902 114.217 42.8157 114.194 42.8379C114.08 42.9799 113.873 43.0043 113.728 42.8928C113.577 42.7863 113.54 42.5778 113.646 42.426C113.646 42.426 113.646 42.3368 113.694 42.2887C113.734 42.1645 113.792 42.0466 113.865 41.9386C113.901 41.897 113.945 41.8642 113.995 41.8425L114.126 41.5954C114.465 40.7991 115.078 40.1511 115.855 39.7695C116.665 39.3508 117.783 38.7742 118.929 38.9732C119.872 39.1604 120.685 39.7528 121.152 40.5932C121.573 41.3783 121.807 42.2496 121.838 43.1399C122.133 45.5435 121.149 47.9263 119.244 49.4209C118.13 50.2322 116.787 50.6674 115.409 50.6633Z" fill="#231F20"/>
<path id="Path_16" d="M102.263 68.0508C105.006 67.8534 107.474 66.3116 108.856 63.9322C111.278 59.8891 110.311 57.3012 110.311 57.3012C110.311 57.3012 107.045 61.4679 101.906 61.8042L102.263 68.0508Z" fill="#231F20"/>
<path id="Shape_12" fill-rule="evenodd" clip-rule="evenodd" d="M101.926 68.0646C101.934 68.245 102.082 68.3873 102.263 68.3872L102.283 68.4215C105.135 68.2385 107.709 66.6449 109.144 64.1725C111.628 60.0332 110.674 57.3561 110.633 57.2463C110.589 57.1309 110.487 57.0475 110.366 57.0266C110.243 57.0083 110.119 57.0582 110.043 57.157C110.043 57.1576 110.042 57.1587 110.04 57.1605C109.927 57.2994 106.742 61.211 101.885 61.5228C101.794 61.5281 101.709 61.5694 101.648 61.6377C101.588 61.706 101.557 61.7955 101.563 61.8866L101.926 68.0646ZM102.585 67.6802L102.263 62.1406C105.274 61.7485 108.051 60.3072 110.105 58.07C110.229 59.031 110.187 61.0354 108.547 63.7812C107.27 65.9342 105.069 67.374 102.585 67.6802Z" fill="#231F20"/>
<path id="Path_17" d="M101 43.0438C101 43.0438 98.427 49.8258 99.5934 50.6358C100.76 51.4458 103.223 50.1553 103.223 50.1553" fill="white"/>
<path id="Path_18" d="M100.609 51.2468C100.18 51.2665 99.7551 51.1513 99.3945 50.9173C98.1046 50.0249 100.081 44.5746 100.671 42.9203C100.738 42.7448 100.934 42.6561 101.11 42.7212C101.196 42.7535 101.265 42.8188 101.303 42.9027C101.34 42.9865 101.342 43.0819 101.309 43.1674C100.115 46.3181 99.2505 49.9631 99.7856 50.3475C100.602 50.9104 102.427 50.1828 103.058 49.8533C103.227 49.7669 103.434 49.8308 103.525 49.9975C103.61 50.1662 103.542 50.3717 103.374 50.4574C102.519 50.9153 101.577 51.1845 100.609 51.2468Z" fill="#231F20"/>
<ellipse id="Oval_2" cx="105.628" cy="41.5332" rx="0.994933" ry="1.40714" transform="rotate(-17.91 105.628 41.5332)" fill="#231F20"/>
<ellipse id="Oval_3" cx="96.4427" cy="43.7108" rx="0.994891" ry="1.4072" transform="rotate(-0.78 96.4427 43.7108)" fill="#231F20"/>
<path id="Shape_13" fill-rule="evenodd" clip-rule="evenodd" d="M99.9638 58.8045C100.51 59.1744 101.157 59.364 101.816 59.3468C102.237 59.3451 102.655 59.2851 103.058 59.1683C104.703 58.6553 106.02 57.4153 106.633 55.8047C107.136 54.5081 107.326 53.1112 107.189 51.7273C107.176 51.6289 107.124 51.5399 107.045 51.4802C106.887 51.3635 106.791 51.2948 97.9122 53.2375C97.7489 53.2735 97.6339 53.4202 97.6378 53.5875L97.6378 53.5877C97.6447 53.7406 97.8031 57.2261 99.9638 58.8045ZM100.355 58.2416C98.8042 57.1158 98.4337 54.6858 98.3514 53.8553V53.8484C101.178 53.2306 105.343 52.3382 106.523 52.1254C106.604 53.294 106.426 54.466 106.002 55.5576C105.457 56.9749 104.295 58.0649 102.846 58.5162C102.016 58.8014 101.102 58.7007 100.355 58.2416Z" fill="#231F20"/>
<path id="Path_19" d="M106.318 55.6949C105 58.88 101.7 59.6419 100.143 58.5368C100.493 57.3218 101.131 56.0587 102.318 55.5988C103.62 55.1543 105.038 55.1884 106.318 55.6949Z" fill="#231F20"/>
<path id="Shape_14" fill-rule="evenodd" clip-rule="evenodd" d="M99.964 58.8045C100.511 59.1711 101.158 59.3582 101.817 59.3399C102.236 59.3402 102.654 59.2825 103.058 59.1683C104.7 58.6549 106.017 57.4184 106.633 55.8116C106.667 55.7256 106.667 55.6299 106.633 55.5439C106.595 55.4578 106.523 55.391 106.434 55.3586C105.082 54.8339 103.588 54.8023 102.215 55.2693C101.11 55.6881 100.307 56.7589 99.8405 58.4338C99.7984 58.5711 99.848 58.72 99.964 58.8045ZM102.846 58.5093C102.097 58.7584 101.281 58.7092 100.568 58.372C101 57.0678 101.618 56.2303 102.462 55.8871C103.562 55.5212 104.751 55.5212 105.851 55.8871C105.268 57.149 104.175 58.1027 102.846 58.5093Z" fill="#231F20"/>
<path id="Shape_15" fill-rule="evenodd" clip-rule="evenodd" d="M88.2105 46.9016C88.4169 47.8471 89.2535 48.5213 90.2209 48.5216C90.3697 48.5136 90.5171 48.4883 90.66 48.4461L98.3104 46.7712C99.3995 46.5155 100.085 45.4363 99.8542 44.3412L99.1681 41.0669C99.0515 40.5321 98.727 40.0657 98.2661 39.7707C97.8052 39.4758 97.2459 39.3765 96.7117 39.4949L89.0613 41.1767C87.9513 41.4196 87.2479 42.5166 87.4901 43.6273L88.2105 46.9016ZM96.8627 40.1608C96.9607 40.1506 97.0596 40.1506 97.1577 40.1608L97.1851 40.1402C97.8167 40.1493 98.3605 40.5884 98.5025 41.2042L99.1886 44.4785C99.3343 45.2039 98.8791 45.9143 98.1594 46.0847L90.5091 47.8008C89.784 47.9465 89.0739 47.4912 88.9035 46.7712L88.1831 43.4488C88.0337 42.7189 88.4935 42.0031 89.2191 41.8357L96.8627 40.1608Z" fill="#231F20"/>
<path id="Shape_16" fill-rule="evenodd" clip-rule="evenodd" d="M102.743 45.2061C103.074 45.4202 103.46 45.5346 103.854 45.5356C104.016 45.5349 104.176 45.5188 104.335 45.4875L111.978 43.8126C113.078 43.554 113.763 42.4574 113.515 41.3552L112.829 38.0809C112.712 37.546 112.388 37.0797 111.927 36.7847C111.466 36.4898 110.907 36.3905 110.373 36.5089L102.729 38.1838C102.193 38.301 101.727 38.6271 101.432 39.0899C101.139 39.5502 101.04 40.1082 101.158 40.6413L101.844 43.9156C101.961 44.4478 102.284 44.9119 102.743 45.2061ZM110.496 37.1953C110.593 37.1738 110.692 37.1623 110.791 37.161C111.435 37.1581 111.994 37.6035 112.136 38.2319L112.822 41.5062C112.899 41.8573 112.835 42.2246 112.644 42.529C112.448 42.8294 112.143 43.0412 111.793 43.1193L104.142 44.7942C103.417 44.9399 102.707 44.4846 102.537 43.7646L101.816 40.4903C101.742 40.1382 101.808 39.7709 102.002 39.4675C102.194 39.1639 102.501 38.951 102.853 38.8771L110.496 37.1953Z" fill="#231F20"/>
<path id="Path_20" d="M98.818 41.4993C98.7552 41.5007 98.6933 41.484 98.6396 41.4513C98.4732 41.3529 98.4154 41.1398 98.5093 40.9708C98.8317 40.4147 99.8815 39.543 101.604 40.2363C101.793 40.3083 101.888 40.5204 101.816 40.7099C101.744 40.8995 101.532 40.9947 101.343 40.9227C99.806 40.3049 99.1885 41.2453 99.1268 41.3552C99.0541 41.4515 98.9385 41.5055 98.818 41.4993Z" fill="#231F20"/>
<path id="Path_21" d="M30.4656 132.878H171.534L194.17 174.236H7.83008L30.4656 132.878Z" fill="white"/>
<path id="Shape_17" fill-rule="evenodd" clip-rule="evenodd" d="M7.83019 174.58H194.17C194.292 174.581 194.407 174.519 194.472 174.415C194.53 174.308 194.53 174.179 194.472 174.072L171.829 132.714C171.77 132.602 171.654 132.533 171.527 132.535H30.4794C30.3533 132.533 30.2367 132.602 30.1775 132.714L7.53515 174.072C7.47656 174.179 7.47656 174.308 7.53515 174.415C7.59872 174.517 7.7101 174.579 7.83019 174.58ZM193.587 173.893H8.4134L30.6715 133.222H171.328L193.587 173.893Z" fill="#D1D3D4"/>
<path id="Path_22" d="M32.6543 106.196L32.9562 104.892C33.6423 103.588 34.4039 102.709 36.1742 102.709H103.326C104.993 102.712 106.459 103.813 106.928 105.414L117.844 142.935C118.429 144.605 117.615 146.441 115.985 147.129L114.798 147.41L32.6543 106.196Z" fill="white"/>
<path id="Shape_18" fill-rule="evenodd" clip-rule="evenodd" d="M114.647 147.719C114.695 147.74 114.746 147.752 114.798 147.753L114.867 147.781L116.095 147.486C117.889 146.732 118.79 144.713 118.153 142.873L107.23 105.304C106.715 103.559 105.117 102.36 103.299 102.352H36.1469C34.1023 102.352 33.3132 103.471 32.6271 104.714C32.6241 104.743 32.6241 104.773 32.6271 104.803L32.3252 106.107C32.2863 106.261 32.3607 106.422 32.5036 106.492L114.647 147.719ZM114.867 147.046L33.0731 106.011L33.2789 105.016C34.0062 103.739 34.658 103.052 36.1744 103.052H103.347C104.86 103.06 106.19 104.058 106.619 105.51L117.536 143.031C117.927 144.39 117.584 146.154 115.93 146.799L114.867 147.046Z" fill="#231F20"/>
<path id="Path_23" d="M114.798 147.41H46.2743C45.3183 147.4 44.4821 146.764 44.2159 145.845L32.6821 106.196C32.5938 105.888 32.6553 105.556 32.8481 105.3C33.0409 105.044 33.3426 104.893 33.6632 104.892H104.019L115.937 145.893C116.044 146.252 115.974 146.64 115.75 146.939C115.525 147.238 115.172 147.413 114.798 147.41Z" fill="#231F20"/>
<path id="Shape_19" fill-rule="evenodd" clip-rule="evenodd" d="M46.274 147.753H114.798C115.279 147.753 115.731 147.526 116.02 147.142C116.309 146.757 116.4 146.259 116.266 145.797L104.341 104.796C104.301 104.652 104.168 104.553 104.019 104.556H33.6355C33.2095 104.56 32.8096 104.761 32.5529 105.101C32.2963 105.441 32.2121 105.882 32.325 106.292L43.8588 145.941C44.1765 147.012 45.1576 147.748 46.274 147.753ZM33.0983 105.508C33.2257 105.339 33.4239 105.239 33.6355 105.235H103.744L115.614 145.989C115.69 146.243 115.641 146.518 115.484 146.731C115.321 146.944 115.067 147.069 114.798 147.067H46.274C45.46 147.065 44.7437 146.529 44.5107 145.749L32.9837 106.1C32.9286 105.896 32.9709 105.677 33.0983 105.508Z" fill="#231F20"/>
<path id="Path_24" d="M103.306 130.517L99.1408 148.234C98.6869 150.187 96.9456 151.567 94.9417 151.563H51.5987C50.2807 151.563 49.0352 150.959 48.2171 149.926C47.399 148.892 47.0979 147.541 47.3996 146.257L51.0704 130.517H47.4819L43.969 145.447C43.4318 147.776 43.985 150.223 45.4717 152.094C46.9585 153.965 49.2165 155.056 51.6056 155.057H94.976C98.5935 155.055 101.737 152.571 102.578 149.051L106.928 130.517L103.306 130.517Z" fill="white"/>
<path id="Shape_20" fill-rule="evenodd" clip-rule="evenodd" d="M51.5983 155.448H94.9412C98.7521 155.474 102.072 152.854 102.935 149.14L107.292 130.606C107.312 130.505 107.286 130.399 107.221 130.318C107.156 130.237 107.059 130.19 106.955 130.187H103.333C103.175 130.187 103.039 130.295 103.003 130.448L98.8384 148.165C98.4199 149.965 96.8153 151.237 94.9687 151.234H51.5983C50.3845 151.232 49.2379 150.676 48.4842 149.725C47.7305 148.773 47.4523 147.529 47.7285 146.346L51.4268 130.606C51.4516 130.506 51.4288 130.399 51.365 130.318C51.2997 130.237 51.2016 130.189 51.0974 130.187H47.4747C47.3157 130.186 47.1766 130.294 47.1384 130.448L43.6323 145.385C43.0602 147.82 43.6316 150.383 45.1837 152.343C46.7358 154.304 49.0983 155.448 51.5983 155.448ZM44.2841 145.543L47.7148 130.874H50.6583L47.063 146.188C46.7358 147.575 47.0605 149.035 47.9444 150.152C48.8282 151.269 50.1742 151.921 51.5983 151.92H94.9549C97.1216 151.93 99.0056 150.436 99.4903 148.323L103.607 130.874H106.523L102.269 148.975C101.482 152.371 98.4531 154.772 94.9687 154.762H51.5983C49.3043 154.769 47.1337 153.724 45.7075 151.926C44.2813 150.129 43.7569 147.777 44.2841 145.543Z" fill="#231F20"/>
<path id="Path_25" d="M159.198 94.3896C159.198 94.3896 165.332 121.641 160.309 128.602C155.287 135.562 120.212 134.464 120.212 134.464C120.212 134.464 114.524 141.294 109.583 140.841C104.643 140.388 107.525 131.039 113.337 127.147L112.534 123.9L143.458 118.937L139.341 99.3526" fill="white"/>
<path id="Path_26" d="M110.036 141.205C109.867 141.205 109.696 141.205 109.522 141.205C108.207 141.139 107.102 140.194 106.832 138.905C106.057 135.864 108.541 130.064 112.911 127.016L112.17 124.003C112.146 123.912 112.161 123.814 112.211 123.735C112.264 123.653 112.349 123.598 112.445 123.584L143.012 118.676L138.964 99.4555C138.945 99.3663 138.963 99.2735 139.014 99.1975C139.064 99.1216 139.142 99.0687 139.231 99.0505C139.32 99.0302 139.412 99.0464 139.489 99.0955C139.565 99.1446 139.618 99.2225 139.636 99.3114L143.753 118.896C143.773 118.988 143.753 119.086 143.698 119.163C143.646 119.241 143.564 119.293 143.472 119.307L112.918 124.215L113.604 127.098C113.64 127.237 113.585 127.382 113.467 127.462C109.268 130.277 106.75 135.94 107.47 138.754C107.661 139.753 108.513 140.49 109.529 140.532C114.229 140.971 119.821 134.354 119.862 134.279C119.929 134.197 120.031 134.152 120.136 134.155C120.486 134.155 155.129 135.164 159.973 128.43C164.817 121.696 158.875 94.7946 158.813 94.4994C158.786 94.3768 158.827 94.2491 158.92 94.1644C159.012 94.0797 159.143 94.051 159.263 94.0889C159.382 94.1269 159.473 94.2258 159.5 94.3484C159.753 95.4673 165.606 121.806 160.549 128.835C155.609 135.7 123.231 134.931 120.301 134.842C119.526 135.748 114.633 141.205 110.036 141.205Z" fill="#231F20"/>
<path id="Path_27" d="M122.401 80.8942C122.348 80.8933 122.296 80.8792 122.25 80.853C122.165 80.8144 122.099 80.7427 122.068 80.6547C122.037 80.5666 122.043 80.4696 122.085 80.3862C127.066 70.0896 139.856 63.1634 139.986 63.0947C140.068 63.0491 140.164 63.0387 140.254 63.0659C140.343 63.0931 140.417 63.1556 140.46 63.2389C140.505 63.3215 140.516 63.4191 140.489 63.5096C140.462 63.6001 140.399 63.6757 140.315 63.7194C140.192 63.7881 127.601 70.5838 122.723 80.6951C122.661 80.8167 122.537 80.8935 122.401 80.8942Z" fill="#231F20"/>
<path id="Path_28" d="M101.254 80.4068C101.204 80.4171 101.153 80.4171 101.103 80.4068C89.1504 74.9153 87.7026 62.8476 87.6889 62.7309C87.6689 62.5359 87.8098 62.3613 88.0045 62.3397C88.0975 62.3281 88.1911 62.3542 88.2646 62.4123C88.3382 62.4703 88.3853 62.5554 88.3956 62.6486C88.3956 62.7653 89.8228 74.4416 101.432 79.6998C101.609 79.7808 101.688 79.9883 101.611 80.1665C101.557 80.3159 101.412 80.4132 101.254 80.4068Z" fill="#231F20"/>
<path id="Path_29" d="M46.7954 95.9684C46.6422 95.9246 46.5366 95.7846 46.5366 95.6252C46.5366 95.4658 46.6422 95.3257 46.7954 95.282C51.9688 95.1241 54.4801 92.1998 54.5075 92.1724C54.5665 92.1002 54.6518 92.0546 54.7445 92.0456C54.8373 92.0365 54.9298 92.0649 55.0015 92.1243C55.1526 92.2497 55.1741 92.4736 55.0496 92.6254C54.9398 92.7559 52.305 95.8242 46.816 95.989L46.7954 95.9684Z" fill="#231F20"/>
<path id="Path_30" d="M139.3 99.7026C139.137 99.704 138.995 99.5931 138.957 99.4349C138.957 99.3114 135.725 86.6603 135.279 79.0751C135.273 78.9822 135.305 78.8909 135.367 78.8213C135.429 78.7518 135.515 78.7097 135.608 78.7044C135.803 78.6926 135.971 78.8393 135.986 79.0339C136.432 86.5504 139.615 99.1329 139.643 99.2633C139.691 99.4527 139.578 99.6454 139.389 99.6958L139.3 99.7026Z" fill="#231F20"/>
<path id="Path_31" d="M83.9975 101.961C83.9033 101.956 83.8153 101.913 83.7533 101.842C83.6913 101.771 83.6606 101.678 83.6681 101.583L85.3697 74.9153C85.375 74.8211 85.418 74.733 85.489 74.671C85.5601 74.6089 85.6531 74.5782 85.7471 74.5858C85.8406 74.5892 85.9287 74.6307 85.9909 74.7007C86.0531 74.7707 86.084 74.8631 86.0764 74.9564L84.3474 101.625C84.34 101.813 84.1855 101.961 83.9975 101.961Z" fill="#231F20"/>
<path id="Path_32" d="M144.748 87.0447C144.618 87.0462 144.499 86.9745 144.439 86.8593L141.118 80.6814C141.081 80.5912 141.081 80.4901 141.118 80.3999C141.15 80.3077 141.216 80.2314 141.303 80.1871L151.595 75.3203C151.68 75.278 151.778 75.2717 151.867 75.3027C151.956 75.3337 152.029 75.3995 152.069 75.485C152.153 75.6614 152.079 75.8724 151.904 75.9586L141.928 80.6676L144.933 86.2415L155.04 83.1525C155.162 83.1158 155.295 83.1472 155.388 83.235C155.481 83.3228 155.521 83.4536 155.491 83.5782C155.462 83.7028 155.368 83.8022 155.246 83.839L144.851 87.0515L144.748 87.0447Z" fill="#231F20"/>
<ellipse id="Oval_4" cx="153.661" cy="160.274" rx="16.9406" ry="5.10025" fill="white"/>
<path id="Shape_21" fill-rule="evenodd" clip-rule="evenodd" d="M136.377 160.274C136.377 163.329 143.972 165.718 153.661 165.718C163.349 165.718 170.944 163.329 170.944 160.274C170.944 157.219 163.349 154.831 153.661 154.831C143.972 154.831 136.377 157.219 136.377 160.274ZM137.063 160.274C137.063 157.975 143.732 155.517 153.661 155.517C163.589 155.517 170.258 157.975 170.258 160.274C170.258 162.574 163.589 165.031 153.661 165.031C143.732 165.031 137.063 162.574 137.063 160.274Z" fill="#D1D3D4"/>
<path id="Path_33" d="M140.892 145.708L140.487 145.783C139.263 145.966 138.149 146.594 137.358 147.548C136.454 148.929 136.414 150.705 137.255 152.126C139.053 155.366 143.43 156.245 146.806 156.581C147.284 156.659 147.773 156.621 148.233 156.471C148.699 156.312 149.014 155.878 149.022 155.387C148.963 154.986 148.705 154.642 148.336 154.474C147.983 154.31 147.605 154.203 147.218 154.158C145.118 153.815 142.909 153.561 140.988 152.593C139.869 152.023 138.305 150.726 139.122 149.325C139.407 148.882 139.818 148.533 140.302 148.323C142.23 147.403 144.062 148.104 145.962 148.666C146.1 148.717 146.248 148.738 146.395 148.728C146.771 148.625 147.01 148.256 146.95 147.87C146.889 147.04 146.058 146.497 145.276 146.188C143.879 145.658 142.37 145.492 140.892 145.708Z" fill="white"/>
<path id="Shape_22" fill-rule="evenodd" clip-rule="evenodd" d="M146.779 156.924C146.977 156.946 147.176 156.958 147.376 156.959C147.71 156.964 148.042 156.908 148.357 156.794C148.946 156.657 149.375 156.15 149.415 155.546C149.454 154.943 149.094 154.385 148.528 154.172C148.141 153.987 147.726 153.868 147.3 153.822L146.525 153.698C144.677 153.503 142.87 153.026 141.166 152.284C140.348 151.923 139.69 151.276 139.314 150.465C139.216 150.141 139.263 149.79 139.444 149.504C139.694 149.116 140.055 148.812 140.48 148.632C142.12 147.85 143.712 148.33 145.4 148.845L145.894 148.996C146.079 149.059 146.275 149.084 146.47 149.071C147.025 148.939 147.392 148.41 147.321 147.843C147.231 146.724 146.113 146.127 145.427 145.873C143.968 145.313 142.389 145.141 140.844 145.372L140.418 145.447C139.112 145.648 137.925 146.322 137.084 147.342C136.096 148.83 136.045 150.752 136.953 152.291C138.415 154.927 141.626 156.437 146.779 156.924ZM140.555 146.12L140.947 146.051V146.065C142.374 145.851 143.832 146.01 145.18 146.525C145.599 146.676 146.58 147.129 146.635 147.898C146.648 148.104 146.545 148.385 146.381 148.385C146.282 148.387 146.185 148.371 146.093 148.337L145.599 148.186C143.863 147.657 142.065 147.115 140.185 148.014C139.636 148.25 139.172 148.648 138.854 149.154C138.575 149.606 138.503 150.155 138.655 150.664C139.083 151.658 139.869 152.454 140.857 152.895C142.622 153.673 144.497 154.173 146.415 154.378L147.19 154.501C147.539 154.537 147.88 154.63 148.199 154.776C148.454 154.893 148.634 155.13 148.679 155.407C148.656 155.75 148.428 156.045 148.103 156.156C147.694 156.279 147.262 156.307 146.84 156.238C141.935 155.778 138.895 154.378 137.557 151.961C136.777 150.657 136.807 149.022 137.633 147.747C138.377 146.868 139.416 146.289 140.555 146.12Z" fill="#231F20"/>
<path id="Path_34" d="M142.477 142.234C142.477 142.234 145.646 158.064 145.907 159.018C146.168 159.972 153.661 163.892 159.63 160.041L164.851 143.861L142.477 142.234Z" fill="white"/>
<path id="Shape_23" fill-rule="evenodd" clip-rule="evenodd" d="M148.549 161.05C150.222 161.698 151.998 162.037 153.791 162.052C155.919 162.089 158.01 161.502 159.808 160.363C159.876 160.323 159.927 160.259 159.953 160.185L165.174 144.006C165.209 143.905 165.194 143.795 165.135 143.707C165.075 143.619 164.978 143.564 164.872 143.559L142.497 141.898C142.391 141.886 142.285 141.927 142.214 142.008C142.143 142.088 142.115 142.199 142.141 142.303C142.271 142.955 145.317 158.153 145.571 159.107C145.736 159.718 147.232 160.542 148.549 161.05ZM146.237 158.929C146.01 158.084 143.417 145.186 142.902 142.612L164.412 144.177L159.363 159.821C155.753 162.073 151.815 161.366 149.757 160.741C147.568 160.075 146.333 159.155 146.237 158.929Z" fill="#231F20"/>
<ellipse id="Oval_5" cx="153.696" cy="142.697" rx="4.86" ry="11.2183" transform="rotate(-87.65 153.696 142.697)" fill="#231F20"/>
<path id="Shape_24" fill-rule="evenodd" clip-rule="evenodd" d="M153.475 147.918H154.566C156.956 147.971 159.336 147.592 161.592 146.799C163.863 145.948 165.181 144.644 165.236 143.202C165.359 140.278 160.378 137.8 153.901 137.532C147.424 137.265 142.257 139.324 142.134 142.248C142.01 145.172 146.991 147.657 153.475 147.918ZM142.813 142.283C142.909 139.949 147.403 138.164 152.844 138.164L153.901 138.184C159.781 138.425 164.687 140.697 164.584 143.147C164.536 144.28 163.369 145.372 161.38 146.133C158.853 147.019 156.176 147.395 153.503 147.239C147.616 146.998 142.717 144.726 142.813 142.283Z" fill="#231F20"/>
<path id="Shape_25" fill-rule="evenodd" clip-rule="evenodd" d="M90.5433 98.2542H126.846C127.028 98.2546 127.179 98.1131 127.19 97.9316V87.1888C127.19 86.9993 127.036 86.8456 126.846 86.8456H90.5433C90.3553 86.8492 90.2038 87.0008 90.2002 87.1888V97.911C90.2002 98.1006 90.3538 98.2542 90.5433 98.2542ZM126.503 97.5678H90.8863V87.532H126.503V97.5678Z" fill="white"/>
<rect id="Rectangle" x="7.83008" y="174.236" width="186.333" height="7.18703" fill="white"/>
<path id="Shape_26" fill-rule="evenodd" clip-rule="evenodd" d="M7.83037 181.767H194.17C194.359 181.767 194.513 181.613 194.513 181.423V174.236C194.509 174.048 194.358 173.897 194.17 173.893H7.83037C7.64243 173.897 7.49095 174.048 7.4873 174.236V181.423C7.4873 181.613 7.6409 181.767 7.83037 181.767ZM193.827 181.08H8.17344V174.58H193.827V181.08Z" fill="#D1D3D4"/>
<path id="Path_35" d="M164.845 107.116C164.657 107.109 164.508 106.954 164.508 106.766C164.508 105.977 165.009 87.3673 167.061 80.9216C169.112 74.4759 172.961 71.7919 173.119 71.689C173.277 71.5828 173.49 71.6243 173.596 71.7817C173.702 71.939 173.661 72.1526 173.503 72.2587C173.462 72.2587 169.709 74.8603 167.713 81.1275C165.716 87.3947 165.201 106.588 165.194 106.78C165.193 106.871 165.155 106.957 165.089 107.021C165.023 107.084 164.935 107.118 164.845 107.116Z" fill="white"/>
</g>
</g>
</g>
<defs>
<linearGradient id="paint0_linear_0_10195" x1="0" y1="202" x2="202" y2="202" gradientUnits="userSpaceOnUse">
<stop stop-color="#5D0202" stop-opacity="0.01"/>
<stop offset="1" stop-color="#5D0202" stop-opacity="0.497569"/>
</linearGradient>
</defs>
</svg>
